<svg width="2031" height="1080" viewBox="0 0 2031 1080" fill="none" xmlns="http://www.w3.org/2000/svg">
<path opacity="0.18" d="M2029.49 700.935C2017.49 790.12 1933.48 876.595 1804.19 922.663C1716.02 954.049 1615.64 966.672 1513.39 976.517L1492.85 978.438C1464.32 981.148 1435.67 983.686 1407.19 986.464C1375.99 989.483 1344.95 992.742 1314.38 996.755C1164.61 1016.27 1022.09 1053.7 871.941 1071.22C858.766 1072.77 845.538 1074.17 832.257 1075.37C810.388 1077.36 788.146 1078.81 765.691 1079.42C751.236 1079.9 736.674 1080.07 722.166 1079.97C713.206 1079.97 704.245 1079.7 695.497 1079.42C678.216 1078.87 661.041 1077.91 644.026 1076.47C625.624 1074.96 607.436 1073.04 589.621 1070.26C561.697 1066.24 534.4 1060.59 508.066 1053.39C486.129 1047.42 465.111 1040.13 445.287 1031.64C419.536 1020.66 396.41 1007.33 376.64 992.056C340.797 964.202 318.555 931.033 287.459 901.19C198.81 816.19 36.0216 754.961 5.03196 656.583C-24.1441 564.174 77.8922 474.2 198.97 414.103C320.048 354.006 464.915 311.197 573.832 243.245C756.57 129.363 932.106 -44.273 1241.9 10.3699C1441.27 45.6322 1905.53 230.965 1969.96 352.634C1997.49 404.533 1963.14 460.959 1973.22 515.054C1979.78 550.11 2004.69 582.868 2018.66 617.102C2029.72 644.44 2033.39 672.798 2029.49 700.935Z" fill="#EFBD37"/>
</svg>
