<svg width="1607" height="975" viewBox="0 0 1607 975" fill="none" xmlns="http://www.w3.org/2000/svg">
<path opacity="0.18" d="M1.19458 632.983C10.6903 713.453 77.1604 791.477 179.461 833.043C249.223 861.362 328.649 872.752 409.553 881.634L425.801 883.367C448.38 885.812 471.043 888.103 493.58 890.61C518.269 893.333 542.831 896.274 567.013 899.895C685.52 917.505 798.287 951.271 917.089 967.087C927.513 968.48 937.98 969.749 948.488 970.832C965.792 972.627 983.391 973.927 1001.16 974.484C1012.6 974.917 1024.12 975.072 1035.6 974.979C1042.69 974.979 1049.78 974.731 1056.7 974.484C1070.37 973.989 1083.96 973.122 1097.42 971.822C1111.98 970.46 1126.38 968.727 1140.47 966.22C1162.57 962.588 1184.16 957.491 1205 950.993C1222.36 945.604 1238.99 939.035 1254.67 931.371C1275.05 921.464 1293.35 909.432 1308.99 895.655C1337.35 870.523 1354.95 840.595 1379.55 813.669C1449.69 736.975 1578.5 681.729 1603.02 592.965C1626.1 509.586 1545.37 428.405 1449.57 374.181C1353.77 319.957 1239.14 281.331 1152.96 220.02C1008.37 117.266 869.484 -39.4016 624.368 9.90144C466.612 41.7179 99.2748 208.94 48.2932 318.719C26.5164 365.546 53.6953 416.458 45.7189 465.266C40.5278 496.897 20.819 526.454 9.76172 557.342C1.00854 582.008 -1.88928 607.596 1.19458 632.983Z" fill="#024B06"/>
</svg>
