<svg width="60" height="60" viewBox="0 0 300 300" fill="none" xmlns="http://www.w3.org/2000/svg">
<g clip-path="url(#clip0_1569_267)">
<path d="M257.315 0.000427919C256.797 0.0117072 256.207 0.247401 255.673 0.951697C254.916 2.00785 156.26 138.982 133.799 179.434C134.335 179.609 134.883 179.787 135.436 179.985C138.902 181.22 142.734 182.909 146.822 185.209C151.685 187.945 156.915 191.545 162.342 196.263C187.005 156.264 258.393 4.13539 258.947 2.96044C259.46 1.64471 258.955 0.699012 258.431 0.333533C258.398 0.310828 258.362 0.28827 258.324 0.266004C258.075 0.11952 257.718 -0.00836114 257.315 0.000427919ZM131.085 184.62C130.705 185.413 130.382 186.136 130.12 186.779C121.773 207.198 109.26 231.712 105.797 241.06C112.434 242.086 118.2 245.743 121.997 250.934C128.463 243.382 143.736 220.615 157.436 203.511C157.958 202.859 158.54 202.072 159.17 201.164C154.245 196.809 149.519 193.465 145.137 190.903C140.897 188.424 136.978 186.673 133.495 185.431C132.662 185.135 131.862 184.862 131.085 184.62Z" fill="#333333"/>
<path d="M100.543 294.8C100.438 294.794 100.359 294.797 100.254 294.791C99.2014 294.723 98.1502 294.639 97.1005 294.539C96.0198 294.438 94.9412 294.315 93.8652 294.173C92.7821 294.028 91.6999 293.861 90.6396 293.665C89.5792 293.471 88.537 293.246 87.5346 292.994C86.5322 292.742 85.5708 292.461 84.6614 292.144C84.2157 291.99 83.7745 291.822 83.3384 291.642C82.9136 291.466 82.5072 291.281 82.1167 291.087C81.726 290.893 81.3532 290.692 81.0012 290.478C80.6585 290.272 80.3265 290.048 80.0066 289.807C79.7067 289.582 79.4212 289.339 79.1517 289.078C78.8956 288.831 78.6584 288.564 78.442 288.281C78.2352 288.01 78.0527 287.72 77.8963 287.417C77.7425 287.119 77.6179 286.807 77.5244 286.485C77.4298 286.157 77.3684 285.821 77.341 285.481C77.313 285.122 77.3195 284.761 77.3604 284.404C77.4017 284.031 77.419 283.664 77.4087 283.308C77.3878 282.615 77.2691 281.929 77.0561 281.27C76.9515 280.945 76.8257 280.627 76.6795 280.319C76.5319 280.006 76.3658 279.703 76.182 279.411C75.9947 279.114 75.7916 278.827 75.5737 278.551C75.3529 278.272 75.112 278 74.8588 277.735C74.6024 277.465 74.335 277.206 74.0574 276.958C73.7716 276.704 73.4768 276.461 73.1737 276.229C72.8605 275.989 72.54 275.758 72.2128 275.538C72.0756 275.445 71.9188 275.368 71.7781 275.277C66.7963 286.347 58.8544 293.204 42.53 296.244C39.8567 296.742 40.739 300.001 42.53 300.001C61.8044 300.001 83.9774 299.91 100.543 294.8Z" fill="#FFE600"/>
<path d="M100.089 243.547C87.9034 243.547 77.7693 252.335 75.6839 263.92C74.5601 268.114 73.3028 271.888 71.7773 275.277C71.918 275.368 72.0749 275.445 72.212 275.538C72.5392 275.758 72.8597 275.988 73.1729 276.228C73.4805 276.465 73.7747 276.707 74.0566 276.957C74.3343 277.206 74.6017 277.465 74.8582 277.735C75.1112 278 75.3521 278.271 75.5729 278.551C75.7909 278.826 75.9939 279.113 76.1812 279.41C76.365 279.703 76.5311 280.006 76.6787 280.318C76.825 280.628 76.951 280.945 77.0552 281.27C77.2683 281.929 77.387 282.615 77.4078 283.307C77.4172 283.673 77.401 284.04 77.3594 284.404C77.3186 284.761 77.3122 285.122 77.3402 285.48C77.3676 285.82 77.429 286.157 77.5236 286.485C77.6171 286.807 77.7417 287.119 77.8956 287.417C78.0519 287.72 78.2345 288.009 78.4412 288.281C78.6576 288.564 78.8948 288.83 79.1509 289.078C79.4204 289.338 79.7059 289.582 80.0057 289.807C80.3257 290.047 80.6577 290.271 81.0004 290.478C81.3524 290.691 81.7252 290.893 82.1159 291.087C82.5166 291.286 82.9241 291.471 83.3376 291.642C83.7624 291.818 84.206 291.986 84.6606 292.144C85.57 292.461 86.5314 292.742 87.5338 292.994C88.5362 293.246 89.5784 293.47 90.6387 293.665C91.6991 293.86 92.7813 294.027 93.8643 294.172C94.9403 294.315 96.019 294.437 97.0997 294.539C98.1494 294.639 99.2006 294.723 100.253 294.79C100.359 294.797 100.438 294.794 100.543 294.8C110.099 291.852 117.796 287.243 121.978 280C123.83 276.526 124.88 272.555 124.88 268.343C124.88 254.648 113.783 243.547 100.089 243.547L100.089 243.547Z" fill="#FFA800"/>
</g>
<defs>
<clipPath id="clip0_1569_267">
<rect width="300" height="300" fill="white"/>
</clipPath>
</defs>
</svg>
