<svg width="300" height="122" viewBox="0 0 300 122" fill="none" xmlns="http://www.w3.org/2000/svg">
<path d="M160.654 85.9757C180.519 84.8079 200.309 82.7952 219.942 79.9457C239.488 77.1917 256.189 73.6 273.758 65.9809C282.878 61.8724 289.954 55.2289 293.714 47.2444C296.026 42.0608 295.093 36.3351 293.31 31.0478C291.292 24.9095 286.729 19.9327 280.69 15.9811C274.651 12.0295 268.197 9.23794 260.583 8.70139C190.954 3.83382 125.812 7.64322 57.6582 14.581C38.3674 16.5232 17.3545 23.1217 8.57527 37.4731C-0.11015 51.6684 8.95139 70.7338 26.316 77.3637C35.7915 80.974 46.5869 81.256 57.0532 81.5096C77.4872 81.9705 98.2399 84.8841 118.665 85.3526C119.769 94.0035 121.826 100.317 127.759 107.471C133.691 114.626 143.749 119.899 154.282 119.264C150.587 113.497 147.567 107.076 148.212 100.52C148.857 93.9645 152.815 87.466 160.573 85.9338" fill="#FFC700"/>
<path d="M160.827 88.9076C161.524 88.6798 161.433 89.3283 161.569 89.4121C160.434 89.5564 160.778 88.7491 160.827 88.9076Z" fill="#FFC700"/>
<path d="M151.284 96.7903L151.645 96.6289C151.206 97.2093 150.805 97.8083 150.444 98.4233C150.688 97.8581 150.986 97.3133 151.284 96.7903Z" fill="#FFC700"/>
<path d="M152.248 109.41C151.988 109.203 151.769 108.963 151.599 108.7L151.367 108.328C151.302 108.214 151.246 108.099 151.189 107.97C150.967 107.401 150.827 106.812 150.772 106.215C150.597 104.92 150.642 103.517 150.375 102.42C150.274 102.299 150.164 102.178 150.072 102.057C150.411 101.715 150.749 101.379 151.088 101.059C150.936 102.493 150.924 103.933 151.053 105.366C151.13 106.062 151.263 106.752 151.451 107.433C151.527 107.736 151.626 108.034 151.749 108.326L151.854 108.585L151.976 108.872L152.248 109.41Z" fill="#FFC700"/>
<path d="M151.25 110.362C150.907 109.826 150.548 109.326 150.26 108.825C150.249 108.411 150.239 107.998 150.291 107.583C150.298 107.806 150.354 108.026 150.458 108.232L150.854 109.137C151.191 109.811 151.464 110.407 151.25 110.362Z" fill="#FFC700"/>
<path d="M135.262 117.99C134.52 117.464 133.839 116.9 133.149 116.351C135.259 117.519 135.57 117.845 135.262 117.99Z" fill="#FFC700"/>
<path d="M125.361 112.107C125.55 112.574 125.784 113.018 126.009 113.478C125.545 112.705 125.151 111.908 124.785 111.119L125.361 112.107Z" fill="#FFC700"/>
<path d="M121.213 107.207C121.39 108.263 119.611 106.455 119.992 107.462C119.179 106.185 118.616 104.809 118.325 103.386C118.93 104.82 119.916 106.124 121.213 107.207Z" fill="#FFC700"/>
<path d="M117.799 101.301C117.984 101.942 118.143 102.628 118.322 103.386C118.044 102.712 117.869 102.012 117.799 101.301Z" fill="#FFC700"/>
<path d="M129.316 113.871C128.494 113.8 127.732 113.492 127.169 113.002C127.607 113.093 128.062 113.168 128.509 113.237L129.316 113.871Z" fill="#FFC700"/>
<path d="M128.599 113.241L128.554 113.242C127.647 112.538 127.127 112.021 126.865 111.831C127.091 111.985 127.574 112.453 128.599 113.241Z" fill="#FFC700"/>
<path d="M129.563 114.031L129.363 113.868C129.488 113.887 129.551 113.907 129.563 114.031Z" fill="#FFC700"/>
<path d="M131.226 114.207C131.994 114.718 132.815 115.163 133.626 115.6C133.46 115.706 132.853 115.619 133.373 116.173C132.637 115.537 131.892 114.902 131.226 114.207Z" fill="#FFC700"/>
<path d="M130.326 113.288C130.601 113.615 130.928 113.905 131.239 114.224L130.335 113.665L130.326 113.288Z" fill="#FFC700"/>
<path d="M120.688 104.808C120.266 103.696 119.751 102.61 119.149 101.556C119.988 102.748 120.846 103.983 121.657 105.125C121.566 105.396 121.556 106.093 120.688 104.808Z" fill="#FFC700"/>
<path d="M124.164 109.02L124.034 108.805C124.187 108.896 124.287 108.981 124.164 109.02Z" fill="#FFC700"/>
<path d="M114.995 89.7535L115.138 89.8156L115.014 89.8187L114.995 89.7535Z" fill="#FFC700"/>
<path d="M121.917 105.279C122.487 105.866 122.887 106.551 123.088 107.284C122.661 106.568 122.164 105.905 121.656 105.14C121.697 105.016 121.75 104.978 121.917 105.279Z" fill="#FFC700"/>
<path d="M116.562 97.832C116.929 98.3022 117.29 98.8597 117.704 99.4231C117.223 99.0066 116.47 98.0666 116.562 97.832Z" fill="#FFC700"/>
<path d="M123.61 108.623C123.611 108.667 123.657 108.717 123.684 108.767C123.324 108.558 123.422 108.555 123.61 108.623Z" fill="#FFC700"/>
<path d="M123.61 108.622C123.393 108.188 123.218 107.741 123.088 107.284C123.457 107.826 123.763 108.342 124.015 108.808C123.887 108.736 123.752 108.673 123.61 108.622Z" fill="#FFC700"/>
<path d="M119.134 84.9922C118.738 85.6773 118.558 86.4308 118.611 87.1838C118.594 88.2367 118.876 89.276 119.433 90.2207C119.398 91.3037 118.774 91.6096 117.898 91.4279C117.384 91.3037 116.907 91.0957 116.496 90.8163C116.242 90.6597 116.003 90.4884 115.78 90.3039L115.435 90.0002C115.389 89.9577 115.325 89.8794 115.28 89.866L115.136 89.8042C115.436 89.7097 115.712 89.7101 115.9 88.3329C116.068 88.472 116.202 88.6363 116.295 88.817L116.823 89.6826C117.272 90.5502 117.676 91.0631 117.785 90.0873L117.701 89.2106C117.695 88.9929 117.646 88.8126 117.616 88.6608C117.58 88.4453 117.493 88.2379 117.361 88.0499C117.168 87.8005 116.908 87.7488 116.668 87.3771C117.135 87.5544 117.336 86.7142 117.511 85.5407C116.906 85.1708 115.867 84.8552 116.592 84.3362C117.228 84.4155 117.858 84.526 118.477 84.6672L118.456 85.6335C118.713 85.5836 118.861 84.3672 119.134 84.9922Z" fill="#FFC700"/>
<path d="M116.25 94.0274C116.311 94.3455 116.382 94.6633 116.461 94.9808C115.944 93.9108 115.324 92.8771 114.605 91.8895C114.565 90.2711 114.767 89.8449 115.008 89.8535L115.256 90.9076C115.346 91.2902 115.445 91.6799 115.552 92.0622C115.749 92.8271 115.999 93.5979 116.232 94.3692L116.25 94.0274Z" fill="#FFC700"/>
<path d="M118.076 99.1524C118.443 98.2065 117.898 95.9543 119.216 97.0691C119.564 97.7553 119.757 98.4886 119.785 99.2336C119.688 99.7184 119.724 100.214 119.893 100.683C118.006 96.3728 120.06 102.059 118.172 99.0992C118.419 99.9128 118.736 100.711 119.121 101.487L117.68 99.3438L117.771 99.4287C117.953 99.5912 118.034 99.6328 117.887 99.4258C117.889 99.3919 117.888 99.3579 117.884 99.3242C117.971 99.2436 118.032 99.1474 118.064 99.0438C117.34 97.8272 117.776 98.9057 117.884 99.3242C117.884 99.3242 117.833 99.3981 117.798 99.4135C117.241 97.9284 116.793 96.4166 116.457 94.8861C116.865 95.8999 117.233 97.0818 118.076 99.1524Z" fill="#FFC700"/>
<path d="M137.446 114.829C137.268 114.834 137.242 114.834 137.198 114.879C136.971 114.652 136.898 114.574 137.446 114.829Z" fill="#FFC700"/>
<path d="M135.382 114.136C135.718 114.622 136.215 115.02 136.816 115.284C137.882 115.592 137.005 115.033 137.197 114.883C137.724 115.335 139.2 116.402 136.931 115.616C136.84 115.531 136.749 115.46 136.667 115.375C134.7 114.603 131.902 113.685 132.131 113.941C133.222 113.848 134.323 113.914 135.382 114.136Z" fill="#FFC700"/>
<path d="M125.605 107.544C124.876 106.466 124.164 105.401 123.54 104.262C124.103 104.72 124.701 105.148 125.281 105.577L124.883 105.667C126.374 107.344 125.676 107.179 125.605 107.544Z" fill="#FFC700"/>
<path d="M114.592 89.6581C114.347 89.7851 114.091 89.8981 113.827 89.9966C114.197 89.6749 114.522 89.321 114.797 88.9414C114.723 89.1829 114.648 89.4098 114.592 89.6581Z" fill="#FFC700"/>
<path d="M114.137 88.2695L113.662 88.8259C113.65 88.7048 113.608 88.5872 113.538 88.4804C113.732 88.3991 113.932 88.3286 114.137 88.2695Z" fill="#FFC700"/>
<path d="M169.17 10.3596L170.445 10.4808C170.017 10.4637 169.591 10.4232 169.17 10.3596Z" fill="#FFC700"/>
<path d="M159.929 10.6792L159.691 10.4014C160.121 10.5435 160.301 10.6555 159.929 10.6792Z" fill="#FFC700"/>
<path d="M0.781673 44.8208C0.643879 43.931 0.441521 42.9483 0.361216 42.2241C0.280911 41.4999 0.438916 41.0603 0.763593 41.241L1.32279 41.9098C0.976043 42.8559 0.793877 43.8359 0.781673 44.8208Z" fill="#FFC700"/>
<path d="M83.8629 12.2005L83.3441 12.4389L82.0156 11.9479L83.8629 12.2005Z" fill="#FFC700"/>
<path d="M85.492 14.681L87.8867 14.0625C87.1103 14.3227 86.3093 14.5295 85.492 14.681Z" fill="#FFC700"/>
<path d="M219.603 10.9185L221.061 11.6086C218.738 11.5354 219.771 11.2338 219.603 10.9185Z" fill="#FFC700"/>
<path d="M59.3814 84.4641C58.0593 84.6399 56.7235 84.7314 55.3861 84.7376C57.3614 84.4195 58.8879 83.9307 59.3814 84.4641Z" fill="#FFC700"/>
<path d="M165.306 3.78533C166.1 3.87482 166.441 3.99007 166.427 4.13594C165.606 4.0471 165.15 3.94199 165.306 3.78533Z" fill="#FFC700"/>
<path d="M50.6696 84.6053C50.9617 84.5472 51.2457 84.5256 51.5559 84.4815C52.8244 84.65 54.1083 84.735 55.3954 84.7358C53.8323 85.0581 52.1939 85.0129 50.6696 84.6053Z" fill="#FFC700"/>
<path d="M228.234 74.3984C228.105 74.4396 227.979 74.4864 227.856 74.5388C227.792 74.4603 227.942 74.4275 228.234 74.3984Z" fill="#FFC700"/>
<path d="M176.258 86.9749C176.791 86.9617 177.652 86.9039 178.469 86.8398C177.739 86.9501 176.998 86.9954 176.258 86.9749Z" fill="#FFC700"/>
<path d="M94.2088 87.3111C94.3973 87.3941 95.411 87.4493 94.2088 87.3111Z" fill="#FFC700"/>
<path d="M100.376 85.2904C100.125 85.202 99.945 85.1047 99.9323 84.9522C99.9737 85.0307 100.034 85.1013 100.111 85.1595C100.187 85.2176 100.277 85.2622 100.376 85.2904Z" fill="#FFC700"/>
<path d="M39.0061 79.8091L38.9085 79.8115C39.2792 79.722 39.2175 79.7382 39.0061 79.8091Z" fill="#FFC700"/>
<path d="M96.0664 87.1914C95.547 87.2396 95.0252 87.2647 94.503 87.2666C94.7513 87.2386 95.2309 87.2121 96.0664 87.1914Z" fill="#FFC700"/>
<path d="M95.7535 87.4731L96.8212 87.4903C96.9841 87.6027 96.8431 87.6571 95.7535 87.4731Z" fill="#FFC700"/>
<path d="M92.5446 87.1773C93.195 87.234 93.8488 87.2639 94.5034 87.2671C94.2546 87.2732 94.1573 87.2975 94.2117 87.3398L92.5446 87.1773Z" fill="#FFC700"/>
<path d="M24.189 26.9529C24.1494 26.9692 24.1081 26.9825 24.0656 26.9924L24.1875 26.8945L24.189 26.9529Z" fill="#FFC700"/>
<path d="M27.8974 25.5757C27.2021 25.5678 26.5112 25.6814 25.8711 25.909C25.231 26.1365 24.6565 26.4726 24.1861 26.8949C24.1147 26.1704 24.151 25.4869 24.1331 24.7684C25.4112 25.02 26.6625 25.2722 27.8974 25.5757Z" fill="#FFC700"/>
<path d="M191.302 10.1842L188.284 10.7746C191.918 11.6794 194.524 11.3461 191.716 12.1419C191.513 11.1593 188.578 11.1304 185.651 11.1014C182.724 11.0723 179.79 11.0942 179.57 10.1048L177.58 10.5608C178.149 10.5467 178.249 10.6386 178.808 10.6102C174.956 11.628 175.91 9.22965 170.913 9.62228C169.184 9.82493 167.973 10.1454 169.152 10.3486L165.257 9.98041C164.129 10.0519 164.377 10.3871 165.541 10.3147L159.627 10.3379L159.673 10.3948C158.452 10.0442 157.203 9.7598 155.934 9.54349C154.449 9.89259 156.703 9.72049 156.328 9.98399L153.029 9.6446C151.717 10.2072 154.457 10.5895 156.712 10.4247C153.749 12.517 153.972 10.0424 147.435 11.4681L150.542 11.5871C148.607 12.7898 146.18 12.4724 142.742 13.3564C143.137 13.1578 144.858 12.6286 146.028 12.1058C147.198 11.5829 147.827 11.1098 146.044 10.9362C144.645 11.2106 143.193 11.2243 141.793 10.9762C141.811 11.702 139.941 11.6031 137.595 11.6831L137.823 12.607C135.276 12.4668 135.442 11.9834 133.921 11.6435C131.109 11.902 130.576 12.6633 129.961 13.3031C125.462 13.7341 132.987 11.9644 127.637 12.1189C123.907 12.7052 121.242 12.4735 116.709 12.2446C114.107 12.7521 117.212 12.7768 116.295 13.1118L113.897 12.5395C113.33 12.5971 113.539 12.8098 113.64 12.9162C111.653 12.7694 113.395 12 110.281 11.9683C109.368 10.996 104.105 13.937 100.161 13.0834C99.2803 13.4176 100.672 13.6082 100.424 13.992C97.4124 13.9019 94.4166 13.6168 91.4648 13.1394L87.8679 14.0564C90.513 13.1339 86.943 12.627 83.8462 12.1954C84.7252 11.7815 85.5435 11.4271 86.081 11.225L81.1967 11.1573C80.6414 11.3599 81.164 11.6301 81.9989 11.9435C81.6599 11.901 81.3385 11.8509 81.1061 11.8059C79.4287 12.305 80.3826 12.7533 81.6823 13.1568L83.3451 12.433C84.6016 12.8884 85.7887 13.4181 85.6069 13.9745C85.0776 13.8837 84.5361 13.8459 83.9943 13.862C84.3266 13.9918 84.543 14.1098 84.4122 14.2148C84.2814 14.3197 83.7349 14.1589 82.9127 13.9978L81.9536 15.1254L81.6327 14.7412L75.4376 15.9624C70.8154 15.3508 66.7045 14.1964 59.4988 14.4767C61.3808 15.0546 60.0532 15.6685 60.2707 16.5491C62.0835 15.4148 65.8525 16.4107 69.5208 15.8622C67.6069 16.1493 68.0877 16.5295 68.5967 16.6113L61.8855 16.3928C62.1346 17.1129 60.5596 17.0793 58.8815 17.5494C59.9452 15.9762 53.9155 17.0553 51.2478 17.0706C51.1982 17.5802 51.9099 17.9474 55.0453 17.4267C54.4312 17.7095 53.7487 17.877 53.0479 17.917C52.3471 17.957 51.6459 17.8684 50.9956 17.6578C50.3482 17.4464 49.6492 17.3579 48.9509 17.3991C48.2526 17.4403 47.5732 17.6101 46.9638 17.8958C47.7343 17.7677 48.131 17.6272 48.4914 17.8143C47.8963 17.7922 47.2993 17.8338 46.7158 17.9382C46.0685 18.0506 45.4304 18.1974 44.8057 18.3778C43.6486 18.6969 42.8932 19.0788 43.4639 19.1372L44.225 18.9876L39.8066 20.1284C38.1729 20.5974 36.4228 21.033 34.8427 21.5079C31.6361 22.3862 28.952 23.1717 28.2579 22.7968C28.7757 23.2601 29.3868 23.6476 30.0651 23.943C28.3662 23.9343 26.5685 23.8844 24.8285 24.0147C23.9397 24.0368 23.0522 24.1096 22.165 24.197L19.5052 24.5316C20.2398 24.7458 20.4251 25.7579 20.9146 26.4865C21.4041 27.2151 22.2429 27.6881 24.1186 26.9372C22.9033 27.9338 21.5306 28.7935 20.0377 29.4929C20.5138 28.9655 20.3997 27.24 19.4435 27.7721C18.7106 29.0538 18.4355 29.4383 18.1271 29.9107L17.5252 30.739L17.0876 31.3816C16.881 31.6779 16.7072 31.9885 16.5682 32.3095C17.1326 31.4023 14.7598 31.1198 13.5117 32.4289C13.9472 32.4181 14.9803 33.5472 15.5858 33.2199L14.4328 33.706L13.3528 34.2629C12.6331 34.6511 11.8598 35.0261 11.1413 35.4579C12.1115 34.773 12.6411 36.0452 12.6476 37.0182C12.6412 36.7642 12.1166 37.4816 11.5426 38.36C11.164 39.1741 10.7296 39.9704 10.2412 40.7452L10.584 39.1536C10.2085 39.9448 9.73571 40.7035 9.17288 41.418C8.71535 41.9551 8.19453 42.4545 7.618 42.909C7.0712 43.3993 6.60073 43.9428 6.21748 44.5269C5.98376 44.8922 5.79084 45.2737 5.64108 45.6668C5.51848 46.1696 5.44195 46.6788 5.41215 47.1902C5.8695 46.627 8.05205 46.0572 8.10567 48.2127C7.67037 48.5844 7.26715 48.9802 6.89894 49.3973C6.28503 50.0516 5.73715 50.7453 5.26075 51.4714C4.73663 52.3866 4.31381 53.3377 3.99739 54.3131C3.75146 55.3933 3.67719 56.4936 3.77644 57.5865L4.68222 58.2467C4.8463 59.3708 5.09379 60.4851 5.42335 61.5834C5.47816 61.2843 5.52245 60.9201 5.57455 60.5121C5.62666 60.1042 5.73974 59.6439 5.8343 59.155C6.03249 58.1842 6.15723 57.1208 6.50363 56.0302C6.75732 54.9737 7.07866 53.9282 7.46629 52.8981C7.83353 51.9304 8.08758 51.0599 8.42595 50.3616C8.51233 50.7554 8.71706 51.1246 9.02186 51.4362C9.27457 51.9647 9.40615 52.5276 9.41003 53.0968C10.068 53.8067 10.0432 51.7376 9.96459 51.0787C10.182 51.9521 10.3283 52.8272 10.581 53.6923C10.8338 54.5575 11.1217 55.4073 11.5337 56.2395C10.9116 56.2549 11.0179 57.3125 11.1524 58.4276C11.2868 59.5426 11.6856 60.5567 11.2065 60.6049L10.7511 59.0984C10.5966 58.6084 10.5479 58.0795 10.4465 57.5809C10.3452 57.0823 10.2525 56.5763 10.1777 56.0698L10.0777 54.5545C9.77554 54.562 9.47005 54.7947 9.20535 55.237C8.87595 55.8246 8.69219 56.4586 8.66476 57.1022C8.60769 57.9892 8.68354 58.8775 8.89064 59.7473C9.03069 60.2346 9.20297 60.7152 9.40671 61.1869C9.59673 61.6888 9.85948 62.1699 10.1894 62.6199C11.2396 63.3636 11.6199 61.132 12.0723 61.0845C12.1858 61.8067 12.4467 62.5072 12.8442 63.1568L13.1801 63.7875L13.5754 64.3079C13.7223 64.5243 13.9205 64.7144 14.1585 64.8671C13.9752 64.2907 13.7219 63.7596 13.6006 63.1744C14.3405 63.9739 14.8716 64.8898 15.1617 65.8662C15.3984 66.3442 15.7085 66.7952 16.0844 67.2086C16.5162 67.7109 17.0985 68.1138 17.7767 68.3794C18.385 68.7211 19.0467 68.9952 19.7446 69.1948C20.4179 69.4468 21.0263 69.5914 20.8471 69.8936C19.5518 69.9549 18.3125 70.3606 17.3183 71.0487C16.2417 71.7435 15.4816 72.6483 15.5974 73.3716C15.8043 73.4682 17.3428 74.178 18.9696 74.8639C19.8662 75.1539 20.7624 75.4294 21.5061 75.6506L22.5534 75.9224C22.8124 75.9652 23.0745 75.9951 23.3383 76.0119C24.5126 76.0263 24.1291 75.2661 23.7821 74.5485C23.4352 73.8308 23.1658 73.0097 24.066 73.089C24.0523 73.3215 24.1434 73.5492 24.3221 73.729C24.511 73.939 24.718 74.1377 24.9416 74.3236C26.1308 74.5773 25.0077 73.4069 27.187 74.493C27.0937 75.0328 28.3491 75.4446 29.0748 75.659C29.8005 75.8734 30.0149 75.9117 27.8838 75.6885C30.1693 76.7575 30.5683 76.3482 33.4686 77.1041C32.8952 77.2926 33.3575 78.0001 34.3977 78.7005C35.5302 79.4969 36.8484 80.0987 38.2749 80.4707C38.1703 80.1974 38.8581 79.9624 39.1489 79.8536C41.4938 80.1055 43.8595 80.2191 46.2278 80.1936C48.3535 80.199 50.4161 80.1696 53.0415 80.2425C53.534 80.0197 56.0808 79.7895 55.02 79.3365C55.9864 79.6837 57.0206 79.8914 58.077 79.9506C61.2773 79.1813 54.4425 79.7139 56.8999 78.7525C57.0745 79.3364 61.0933 79.6507 63.382 80.1313C62.6114 80.971 58.0448 80.0894 55.7137 79.6897C55.6466 80.9259 59.6196 82.258 65.0031 83.0904C69.3031 83.6228 66.9514 82.3957 67.6593 82.6105C75.8396 82.8942 74.3403 85.1899 81.2058 84.8163C83.9933 84.2534 81.5323 83.2832 82.2042 82.7655C78.6948 82.1916 76.7009 82.8366 74.3125 82.6416L77.3058 82.4875C75.7864 82.0364 74.1718 81.8298 72.5504 81.8792C74.8929 81.3055 86.3758 82.7855 92.7583 82.6562C93.8429 82.9997 95.739 83.4247 94.7844 83.6662L92.8033 83.3958C90.8854 83.8791 96.4432 84.5619 93.8841 84.6544C96.4975 85.3158 99.4285 86.2308 103.268 86.1283L104.074 85.2804C103.965 85.5446 101.54 85.6483 100.517 85.3033C102.051 85.8099 106.447 84.4954 108.061 85.7407L105.342 86.2003C106.666 86.5161 108.153 86.9367 109.736 87.2824C110.539 87.4599 111.357 87.5949 112.183 87.6864L112.735 87.7381L113.002 87.7315C113.185 87.7485 113.371 87.7439 113.553 87.7178C113.057 88.1441 113.047 88.1152 112.922 88.1038C112.883 88.098 112.842 88.1001 112.804 88.1099C112.765 88.1197 112.73 88.1369 112.701 88.1601C112.55 88.216 112.394 88.2612 112.233 88.2952C112.013 88.3588 111.757 88.445 111.439 88.5618C113.634 87.4108 102.749 88.1528 106.233 86.9916C103.653 88.0359 101.926 87.2364 98.5924 88.0162C98.7276 87.7296 99.7991 87.5433 96.9603 87.4757C96.7798 87.3529 96.5799 87.2504 96.3658 87.1709L96.1791 87.1755L96.3391 87.1716C96.2221 87.1164 96.2131 87.1093 96.3924 87.1703C96.9124 87.1427 97.421 87.0288 97.8871 86.8354C96.5694 86.062 92.0966 85.73 90.6353 85.2651C88.9546 85.2705 91.2854 85.6557 90.3396 85.8897L88.1617 85.2175C87.8484 85.8498 83.5995 85.9407 87.4589 86.6365L83.9395 86.3825C81.7034 86.5995 79.4422 86.5033 77.2533 86.0981C75.5824 86.1395 73.1725 85.0809 74.5752 85.6924C72.7897 85.422 70.978 85.1668 69.1399 84.9267L69.0728 85.0882C66.4015 84.9584 63.6166 84.5554 60.7556 84.3068C59.3011 84.1873 57.8391 84.1315 56.3757 84.1394C54.8048 84.1595 53.2373 84.2859 51.6893 84.5171C49.3741 84.1944 47.0294 84.0219 44.6772 84.0011L43.9786 84.5195C42.7553 84.3247 40.8785 84.3132 39.15 84.189C37.4216 84.0648 35.8785 83.8852 35.4154 83.5046C33.8723 84.0367 30.7031 83.5561 27.4578 82.5182C26.6506 82.2477 25.8261 81.9922 25.0352 81.6633C24.2412 81.37 23.4672 81.0426 22.7163 80.6823C21.2317 79.9929 19.847 79.3882 18.8377 78.854L19.184 78.1192C18.4991 77.7586 17.8406 77.3828 17.1816 76.9924C16.5227 76.6021 15.9679 76.1075 15.3691 75.6358C14.067 74.6098 12.8703 73.4979 11.7912 72.3113L12.5488 72.0166C12.0432 71.3668 11.4901 70.7428 10.8925 70.1478C10.5555 69.8293 10.1915 69.497 9.81845 69.1577L8.75019 68.044L7.60048 66.8743C7.208 66.4701 6.89443 66.0204 6.5366 65.579C6.17877 65.1376 5.84725 64.6811 5.51554 64.2173C5.19718 63.7438 4.9176 63.2534 4.67861 62.7493C4.7585 63.4932 5.14589 64.1904 5.77723 64.7264C5.48786 64.4857 5.21715 64.2305 4.96667 63.9622C4.73743 63.6846 4.52579 63.3994 4.32285 63.1067C3.91404 62.5165 3.55416 61.9044 3.24561 61.2743C2.98427 60.6263 2.76308 59.9677 2.58286 59.3009C2.37757 58.6393 2.23299 57.9657 2.1503 57.2855L1.88678 55.2732C1.77276 54.6225 1.80951 53.9534 1.72251 53.3165C1.63552 52.6796 1.55758 52.0498 1.46224 51.4349C1.39593 50.8204 1.27077 50.2116 1.08789 49.6141C1.28949 48.6524 1.32503 47.6737 1.19345 46.7066C1.18062 46.8056 1.15626 46.9035 1.12068 46.9989C1.11761 46.8755 1.1131 46.6941 1.16173 46.5041C1.03788 45.9424 0.96132 45.3741 0.932633 44.8032C0.998961 45.3244 1.17142 45.8212 1.18207 46.2494C1.34628 45.0176 1.68006 43.8034 2.17707 42.63L1.47461 41.9212L1.60924 41.6129C1.78789 40.2141 2.38553 40.6423 2.75293 41.4683C3.071 40.9072 3.45059 40.3703 3.88699 39.8643C3.38009 39.1507 3.94719 38.3523 4.50434 37.5106C4.79956 37.1001 5.04787 36.6685 5.24604 36.2214C5.46436 35.8046 5.53914 35.3482 5.46223 34.9016C6.06956 34.6469 7.13594 33.1825 8.55528 31.9636C9.97462 30.7447 11.4687 29.6691 12.29 29.794C12.171 29.659 12.4116 29.319 11.8467 29.8486C12.7466 28.6398 13.9754 27.615 15.4364 26.8547C15.3561 26.4863 15.3117 26.1316 15.2676 25.7914C16.6009 25.4025 17.8538 25.001 19.1709 24.6779C20.6356 23.1383 21.2483 22.3824 18.8439 22.9722C21.4874 21.9843 22.5823 21.6667 23.5063 21.2734C24.8365 20.7556 26.241 20.3791 27.6852 20.1531L27.159 19.7377C28.0704 19.3966 29.0201 19.1297 29.9941 18.9411C30.8032 18.8179 31.5618 18.5264 32.1964 18.095C33.6631 16.9911 38.0108 15.5107 43.2029 14.3653C44.5033 14.0861 45.8561 13.7693 47.2111 13.5397C48.5662 13.31 49.9551 13.0141 51.3281 12.7912L53.3646 12.4285L55.3576 12.1031C56.677 11.8743 57.9076 11.6477 59.0402 11.4163C57.4766 13.2706 63.2443 10.2372 63.7917 11.509C64.2785 11.054 65.5504 10.7029 63.9892 10.5092C68.771 10.3906 71.0177 9.18025 74.435 9.98148C74.9219 9.53368 73.3467 9.49286 73.7933 9.21308C74.1858 9.26145 75.346 9.42149 75.8109 9.16305C76.2759 8.90461 75.0749 8.89081 74.2985 8.78661C79.1538 8.40477 79.7881 9.58729 80.2873 10.7078C82.669 9.92252 83.8956 9.8921 85.7608 10.5067C86.5678 10.0582 87.9424 9.54483 84.9216 9.66332C86.6065 9.46903 95.1935 8.22487 95.4742 9.14019C96.3856 8.90662 97.3475 8.84305 98.2888 8.95419C102.078 8.5988 102.404 8.4963 106.143 8.28738L105.126 8.52319C106.716 9.51498 108.248 8.5184 111.27 8.45072L111.178 8.34406C118.003 7.04919 114.189 8.51632 120.931 7.12182L120.62 7.85574C121.385 9.28918 126.583 6.60402 130.585 6.92599L129.191 7.4108C131.389 7.78477 135.073 5.0137 137.245 4.72745C137.712 4.57062 136.484 4.55748 135.816 4.49418C141.452 3.31594 136.611 5.36769 140.871 5.35646C141.623 4.82947 139.783 4.16342 142.614 3.92618C144.016 3.42665 150.995 5.13443 154.846 4.03678C153.967 4.45073 153.167 4.86271 155.156 5.06757C158.17 5.05091 163.269 3.34861 166.044 4.45623C166.424 4.33789 166.564 4.24001 166.579 4.14522C167.738 4.26172 169.616 4.33133 171.38 4.45461C172.788 4.49117 174.178 4.70153 175.505 5.07854C176.55 3.85436 180.149 4.07739 183.49 4.32858C186.832 4.57978 189.856 4.94051 189.828 3.8301L196.945 3.90777L196.761 3.67994C201.312 3.56709 202.908 4.1012 204.496 4.64279C205.542 4.49341 204.781 4.2799 204.698 4.16576C211.348 3.7394 212.02 3.91156 217.537 5.1037L218.141 4.36251C219.627 4.76864 227.804 3.48381 234.269 4.5435C234.205 4.46521 234.086 4.31567 233.576 4.1976C237.21 4.75381 241.588 4.49273 245.454 4.38959C249.32 4.28645 252.508 4.46882 253.717 5.84044L258.277 6.81667C252.047 6.63711 259.08 8.00951 256.473 8.31381C258.89 8.6097 262.902 7.9365 259.897 7.5971L259.41 7.69631C258.939 6.98179 260.841 6.93463 263.078 7.14057C265.316 7.34652 267.543 7.8795 267.585 7.42095C270.713 8.20953 273.722 9.27706 276.558 10.6043C277.962 11.2522 279.304 11.9451 280.612 12.6824C281.92 13.4198 283.183 14.151 284.431 14.9697C289.537 18.1899 293.507 22.4558 295.945 27.342C295.352 27.0952 294.777 26.8626 294.149 26.6603C294.734 27.7352 295.239 28.8381 295.663 29.9633C295.976 30.3767 296.293 30.6013 296.467 30.4445C296.641 30.2876 296.626 29.7143 296.107 28.4854C297.399 29.6588 296.878 32.671 296.596 32.7869C297.445 35.0897 297.682 34.5973 297.791 33.6505C297.901 32.7037 297.735 31.3716 298.002 32.0985C298.269 32.8253 298.284 33.4422 298.408 34.129L298.148 33.6925C298.09 34.5509 297.897 35.0422 297.815 35.676C297.726 36.6588 297.75 37.6454 297.888 38.6226C298.239 40.5529 298.74 39.6037 298.821 40.3787C298.901 40.3767 298.979 40.6362 298.807 41.5918C298.755 43.1901 298.496 44.7812 298.036 46.3385C297.921 45.6525 297.759 44.9728 297.549 44.3027C296.62 46.2575 296.142 48.506 295.863 46.2327C295.923 47.5613 295.606 48.8864 294.937 50.1045C294.081 51.8828 292.983 53.5787 291.665 55.1602C290.397 56.6677 289.006 58.1045 287.503 59.4609C286.225 60.6255 285.187 61.4573 284.895 61.864C283.41 62.5762 282.059 63.3504 280.612 64.1488C279.164 64.9472 277.674 65.8193 275.916 66.6763C276.703 66.1048 276.607 65.1051 273.707 66.5205C274.799 67.1542 273.537 67.9117 271.798 68.7973C270.059 69.6828 267.779 70.6181 266.854 71.7012C267.723 70.8591 265.528 71.6543 263.417 72.2367C261.306 72.8192 259.317 73.297 260.808 72.1271C258.263 73.1125 260.977 72.8491 259.172 73.9179C255.639 74.6946 252.164 75.6441 248.766 76.7612C244.984 77.9631 241.094 78.9192 237.133 79.6205C236.941 79.3929 238.179 78.7594 236.355 78.7175C235.064 79.4031 233.72 80.0682 232.429 80.732C230.806 80.8958 230.621 79.5423 227.915 80.8876C228.273 80.61 228.787 80.1906 227.731 80.2894C212.178 83.914 195.373 83.728 179.464 87.3759C181.609 86.7054 180.134 86.7783 178.465 86.8924C179.536 86.6915 178.369 86.2702 178.547 85.9099L171.878 87.397C170.558 86.5293 164.623 87.8456 163.863 86.9712L166.016 86.9905C163.077 86.1048 169.774 84.3192 169.224 82.9531C172.522 83.9533 177.373 80.5216 182.75 81.8188C183.861 81.4354 181.718 81.4595 182.296 81.1039C183.678 81.5852 185.287 81.5598 188.182 81.016L187.832 80.9012C196.095 80.2243 199.53 79.2386 208.67 77.6902L208.11 78.4303C209.23 78.2419 210.316 77.9367 211.343 77.5223C213.816 78.2525 205.795 78.3062 208.075 79.1719C210.443 77.472 222.071 77.2707 223.475 75.4204C226.478 74.9538 222.759 76.3387 225.772 75.8718L226.478 75.3241L227.378 75.7448C229.324 75.3262 230.188 74.6367 230.179 74.2665C229.551 74.3632 228.917 74.4226 228.28 74.4443C230.712 73.5489 235.457 73.3586 236.249 73.0267L233.476 73.8217C237.847 73.1842 242.168 72.3251 246.414 71.2495C250.781 70.1899 255.057 69.0381 258.968 68.2222L258.544 68.7047C260.376 68.3704 262.133 67.7997 263.749 67.0143C265.467 66.1444 267.273 65.3974 269.146 64.7817L268.888 64.7881C269.657 64.6691 270.412 64.4924 271.143 64.2602C271.967 64.0091 272.763 63.6977 273.521 63.3298C272.707 63.4879 273.264 63.0239 273.743 62.598C274.221 62.1722 274.61 61.7124 273.603 61.977C276.405 60.9416 277.125 60.5679 277.648 60.4896C278.7 60.401 279.728 60.1693 280.69 59.8041L280.915 58.8109C281.524 58.6613 282.115 58.4642 282.679 58.2225C283.58 57.7638 284.394 57.1978 285.092 56.5433C283.988 57.2387 284.155 56.7698 284.268 56.3313C284.382 55.8927 284.425 55.4705 283.179 56.1695C284.508 54.3206 286.052 52.5798 287.79 50.9717C289.083 49.6833 289.944 48.5363 289.597 47.0925C290.981 46.2376 290.743 47.3909 290.097 48.6196C289.775 49.2304 289.363 49.8506 289.115 50.2489C288.867 50.6472 288.747 50.81 289.051 50.541C288.934 51.1757 289.575 50.8766 290.313 50.1538C291.139 49.3589 291.777 48.4466 292.194 47.4638C292.499 46.5312 292.475 45.5496 292.124 44.6333C291.759 43.1574 291.597 41.6514 291.638 40.1429C291.649 40.5566 291.507 40.5819 291.491 40.989C291.372 40.2109 291.374 39.4229 291.494 38.6432C291.612 37.7358 291.427 36.8217 290.957 35.9986C291.815 34.7355 290.298 33.4587 291.564 32.8681C291.847 34.2137 292.044 35.5711 292.155 36.9348C292.126 35.7881 292.417 34.6044 292.4 33.225C292.442 31.5976 291.924 29.9979 290.907 28.6071C290.853 29.377 290.872 30.1486 290.964 30.915C290.212 29.9823 290.423 28.8369 289.467 27.9383C288.916 28.3224 289.423 29.3918 289.912 30.7886C290.177 31.5301 290.392 32.2837 290.555 33.0457C290.715 33.7632 290.734 34.4983 290.609 35.2229C290.237 34.4084 290.041 33.5459 290.03 32.6738C289.901 31.8055 289.746 31.2647 289.204 32.0261C289.863 30.9931 289.448 30.0085 288.781 28.9648C287.93 27.8405 287.324 26.6025 286.992 25.3055L286.391 25.836C286.213 25.0963 285.87 24.3909 285.379 23.7551C285.455 24.3342 285.488 24.9143 285.511 25.4802C285.09 24.414 284.248 23.4951 283.116 22.8672C282.01 22.2615 281.011 21.5364 280.145 20.7114C280.753 21.2129 281.401 21.682 282.083 22.1157C282.443 22.3029 282.593 22.2556 282.679 22.1372C282.765 22.0189 282.847 21.356 283.875 21.9333C283.245 21.0225 282.379 20.2362 281.336 19.6288C280.735 19.3215 280.061 19.1206 279.356 19.0389C278.591 18.9591 277.844 18.7918 277.138 18.5419C275.863 18.0402 274.656 17.4326 273.536 16.7286C274.358 17.2456 277.131 18.2734 275.993 17.1978C274.698 16.5589 273.267 16.1217 271.772 15.9082C269.593 14.8438 269.833 14.8089 270.464 14.8005C271.095 14.7921 272.078 14.971 271.209 14.3608C270.821 14.3904 270.431 14.3447 270.071 14.2274C269.711 14.1101 269.391 13.9246 269.138 13.6859C268.55 13.1026 267.836 12.6133 267.029 12.2422L266.735 12.9031C265.81 12.7705 264.909 12.5491 264.05 12.2435C263.732 12.1286 263.484 11.9156 263.359 11.6506C263.137 11.2713 262.974 10.8105 260.2 10.8575C260.948 11.2456 261.625 11.6283 262.284 12.0476C261.846 11.9496 261.39 11.852 260.961 11.7754L260.291 11.6541L259.532 11.5422L260.078 12.3711C256.803 11.5808 255.738 11.6653 252.439 11.689C253.246 11.2406 252.14 10.3893 249.227 10.1928C247.206 10.4898 250.276 10.893 246.168 10.581C246.659 10.9446 247.265 11.1894 247.918 11.2885C248.572 11.3877 249.249 11.3372 249.873 11.1427C250.03 11.3784 250.775 11.6359 250.913 11.8431C249.691 11.988 248.451 11.9894 247.231 11.8472C245.975 11.7549 244.797 11.6099 244.058 11.5701C244.602 11.5906 245.147 11.56 245.684 11.479L239.792 10.2308C238.828 10.4507 239.554 10.6942 240.281 10.9448C239.077 10.8077 238.267 10.4501 236.485 10.3127C236.909 10.905 236.754 11.4825 239.245 11.871C237.37 11.5762 235.485 11.238 233.603 10.987C233.208 11.2146 230.638 11.5688 231.363 11.7687C228.194 12.0143 223.689 10.3832 219.482 10.7417C219 10.5558 218.478 10.4456 217.945 10.4167C213.998 10.5146 210.499 11.0589 205.855 10.2735L203.211 11.2759C199.568 11.0249 206.835 10.0168 200.75 9.59402C196.437 9.24347 199.127 10.4549 197.604 10.7323C195.474 10.1969 191.74 9.20019 187.804 10.0531C188.965 10.1506 190.133 10.1944 191.302 10.1842ZM146.141 10.9338C147.033 11.0423 148.822 11.4192 149.415 10.9833C148.374 10.2248 147.619 10.6429 146.141 10.9338ZM77.3846 14.1494C78.3351 14.2557 79.3055 14.1148 80.1583 13.7465C79.2162 13.7712 78.2819 13.9068 77.3846 14.1494ZM81.1663 85.7323C81.1335 85.723 81.1031 85.709 81.0764 85.691C79.0961 85.8127 79.7974 85.759 81.1663 85.7323ZM85.2402 85.7548C85.6347 85.883 85.6015 85.9782 85.4168 86.0627C84.7222 85.8137 83.9637 85.7031 83.2032 85.7399C83.5194 85.5796 84.0599 85.5008 85.2402 85.7548ZM298.537 40.7343L298.323 40.0134C298.052 41.6323 298.263 41.1841 298.537 40.7343Z" fill="#FFC700"/>
<path d="M85.2798 14.3937C85.4496 14.2943 85.5667 14.1454 85.6069 13.9781C85.9201 14.0722 85.9854 14.2016 85.2798 14.3937Z" fill="#FFC700"/>
<path d="M219.335 10.7917L219.477 10.7882C219.534 10.8228 219.578 10.8695 219.605 10.9233L219.335 10.7917Z" fill="#FFC700"/>
<path d="M25.4164 73.3506C25.1242 73.2691 24.8254 73.2036 24.5222 73.1545C24.334 73.1049 24.1392 73.0731 23.9418 73.0597C24.0174 72.8832 24.3666 72.9764 25.4164 73.3506Z" fill="#FFC700"/>
<path d="M106.709 88.5283L104.086 88.1858C104.883 88.2755 105.694 88.2555 106.486 88.1264C106.445 88.2584 105.881 88.476 106.709 88.5283Z" fill="#FFC700"/>
<path d="M120.405 93.7934C120.413 94.1127 120.599 94.4276 120.598 94.7472L120.181 94.7575C119.775 93.4604 119.849 92.4854 120.405 93.7934Z" fill="#FFC700"/>
<path d="M109.357 86.332C109.493 86.0454 109.962 85.9685 110.63 85.9955C110.959 85.9874 111.342 86.036 111.761 86.0764L112.394 86.1479L112.956 86.2139L112.734 86.2194C113.217 87.0498 111.288 86.7127 109.357 86.332Z" fill="#FFC700"/>
<path d="M113.254 86.2515C113.639 86.3002 114.03 86.3197 114.42 86.3099C114.411 86.6376 113.95 86.3652 113.254 86.2515Z" fill="#FFC700"/>
<path d="M90.3297 86.5477C91.2169 86.4603 90.7675 87.3429 91.2961 87.141C92.1526 87.9622 85.659 85.77 90.3297 86.5477Z" fill="#FFC700"/>
<path d="M111.008 84.4688L110.287 85.162L109.319 84.5251L111.008 84.4688Z" fill="#FFC700"/>
<path d="M96.5597 84.087L99.4949 84.1016C99.4356 84.2195 99.7939 84.3198 100.241 84.4033C98.4594 84.3019 96.4758 84.2928 96.5597 84.087Z" fill="#FFC700"/>
<path d="M100.249 84.4014C101.041 84.4173 101.826 84.5127 102.587 84.6855C101.802 84.6241 101.022 84.5293 100.249 84.4014Z" fill="#FFC700"/>
<path d="M107.052 84.0431L106.174 84.1376L104.118 84.0648L107.052 84.0431Z" fill="#FFC700"/>
<path d="M65.3739 81.9399C64.3211 81.8062 63.269 81.7015 62.2166 81.5823C61.9166 81.321 62.7942 81.2049 63.9897 81.3568C64.6884 81.5574 65.8576 81.7246 65.3739 81.9399Z" fill="#FFC700"/>
<path d="M75.1256 80.5209C74.5963 80.5654 74.0886 80.7206 73.6516 80.9713L73.6289 80.0641L75.1256 80.5209Z" fill="#FFC700"/>
<path d="M65.8939 79.7557C65.6024 79.4797 61.2993 78.8237 65.3603 79.0427C65.6603 79.3039 68.881 79.7108 65.8939 79.7557Z" fill="#FFC700"/>
<path d="M19.8789 73.3394C20.0748 73.4842 20.2832 73.6173 20.5025 73.7379L19.3214 74.8782C19.4865 74.3658 19.6695 73.8602 19.8789 73.3394Z" fill="#FFC700"/>
<path d="M10.3737 43.8014C10.3089 45.1247 9.99216 45.2633 9.70029 45.3286C9.61554 45.3472 9.53688 45.3813 9.47026 45.4282C9.40364 45.4751 9.35079 45.5337 9.31573 45.5995C9.24719 45.7253 9.20252 45.8586 9.18328 45.995C9.17031 46.2371 9.17636 46.4795 9.20137 46.7207C8.95991 47.0244 8.89391 46.5177 8.83663 46.0035C8.77934 45.4893 8.81149 44.9947 8.59634 45.2833C9.01232 44.4887 9.19286 43.8815 9.39894 43.5859C9.60502 43.2903 9.88182 43.3343 10.3737 43.8014Z" fill="#FFC700"/>
<path d="M8.62891 45.3047C8.51987 45.5616 8.32226 45.8279 8.19637 46.1215C8.28879 45.8331 8.43467 45.5576 8.62891 45.3047Z" fill="#FFC700"/>
<path d="M167.422 88.4186L165.014 88.8994L166.538 88.2952L167.422 88.4186Z" fill="#FFC700"/>
<path d="M162.652 87.6406L162.17 88.6184L160.63 87.865C161.315 87.9231 162.008 87.8461 162.652 87.6406Z" fill="#FFC700"/>
<path d="M139.559 13.1657L139.358 12.9528C139.716 12.6897 140.24 12.6405 141.402 12.5391L139.559 13.1657Z" fill="#FFC700"/>
<path d="M172.231 11.1983L171.672 11.2267L172.699 10.3516L172.231 11.1983Z" fill="#FFC700"/>
<path d="M199.709 11.998C198.598 12.0255 197.285 11.8252 196.148 11.8606C198.553 12.0266 199.994 10.9359 199.709 11.998Z" fill="#FFC700"/>
</svg>
