<svg width="768" height="731" viewBox="0 0 768 731" fill="none" xmlns="http://www.w3.org/2000/svg">
<path opacity="0.18" d="M912.035 474.429C904.584 534.794 852.425 593.325 772.151 624.506C717.409 645.75 655.084 654.294 591.6 660.957L578.85 662.257C561.132 664.092 543.349 665.81 525.665 667.69C506.291 669.733 487.018 671.939 468.042 674.655C375.051 687.866 286.563 713.196 193.34 725.06C185.16 726.105 176.947 727.057 168.701 727.869C155.124 729.216 141.314 730.191 127.372 730.609C118.397 730.934 109.357 731.05 100.349 730.981C94.7852 730.981 89.2216 730.795 83.7905 730.609C73.0608 730.238 62.3973 729.588 51.8331 728.612C40.4079 727.591 29.1151 726.291 18.0542 724.41C0.717194 721.685 -16.2309 717.862 -32.581 712.987C-46.201 708.945 -59.2508 704.017 -71.5592 698.267C-87.5475 690.836 -101.905 681.81 -114.18 671.475C-136.434 652.622 -150.244 630.171 -169.551 609.972C-224.591 552.44 -325.662 510.997 -344.903 444.409C-363.018 381.862 -299.666 320.963 -224.491 280.286C-149.317 239.61 -59.3723 210.635 8.25171 164.641C121.709 87.5597 230.695 -29.9663 423.036 7.01888C546.826 30.8863 835.072 156.329 875.077 238.681C892.165 273.809 870.838 312.001 877.097 348.615C881.171 372.343 896.636 394.516 905.312 417.686C912.181 436.19 914.455 455.385 912.035 474.429Z" fill="#EFBD37"/>
</svg>
