<svg width="768" height="850" viewBox="0 0 768 850" fill="none" xmlns="http://www.w3.org/2000/svg">
<path opacity="0.18" d="M989.09 551.435C981.639 621.544 929.48 689.523 849.206 725.737C794.464 750.411 732.139 760.334 668.654 768.073L655.904 769.583C638.187 771.713 620.403 773.708 602.719 775.892C583.346 778.265 564.072 780.827 545.096 783.982C452.105 799.325 363.618 828.744 270.395 842.523C262.215 843.737 254.002 844.842 245.756 845.786C232.178 847.35 218.369 848.483 204.427 848.968C195.452 849.345 186.411 849.48 177.404 849.399C171.84 849.399 166.276 849.184 160.845 848.968C150.115 848.536 139.452 847.781 128.888 846.649C117.463 845.462 106.17 843.952 95.1089 841.768C77.7719 838.604 60.8238 834.163 44.4737 828.501C30.8537 823.807 17.8039 818.083 5.49551 811.406C-10.4929 802.774 -24.8508 792.291 -37.1255 780.288C-59.3798 758.392 -73.1894 732.317 -92.4963 708.857C-147.536 642.038 -248.608 593.905 -267.848 516.569C-285.963 443.925 -222.611 373.196 -147.437 325.953C-72.2621 278.71 17.6824 245.058 85.3064 191.64C198.764 102.116 307.75 -34.3816 500.091 8.57376C623.881 36.2939 912.127 181.986 952.132 277.631C969.22 318.43 947.893 362.787 954.152 405.311C958.225 432.87 973.691 458.621 982.367 485.532C989.236 507.023 991.51 529.316 989.09 551.435Z" fill="#268D31"/>
</svg>
