<svg width="768" height="670" viewBox="0 0 768 670" fill="none" xmlns="http://www.w3.org/2000/svg">
<path opacity="0.18" d="M888.035 434.84C880.584 490.167 828.425 543.814 748.151 572.393C693.409 591.864 631.084 599.695 567.6 605.802L554.85 606.994C537.132 608.675 519.349 610.25 501.665 611.973C482.291 613.846 463.018 615.867 444.042 618.357C351.051 630.465 262.563 653.682 169.34 664.556C161.16 665.513 152.947 666.386 144.701 667.131C131.124 668.365 117.314 669.259 103.372 669.642C94.3973 669.94 85.3565 670.046 76.3488 669.982C70.7852 669.982 65.2216 669.812 59.7905 669.642C49.0608 669.301 38.3973 668.705 27.8331 667.812C16.4079 666.875 5.11514 665.684 -5.94577 663.96C-23.2828 661.463 -40.2309 657.958 -56.581 653.49C-70.201 649.785 -83.2508 645.268 -95.5592 639.999C-111.548 633.187 -125.905 624.915 -138.18 615.442C-160.434 598.163 -174.244 577.585 -193.551 559.072C-248.591 506.34 -349.662 468.355 -368.903 407.325C-387.018 349.997 -323.666 294.18 -248.491 256.897C-173.317 219.615 -83.3723 193.058 -15.7483 150.902C97.709 80.2531 206.695 -27.4657 399.036 6.43317C522.826 28.3089 811.072 143.284 851.077 218.764C868.165 250.96 846.838 285.966 853.097 319.524C857.171 341.272 872.636 361.594 881.312 382.832C888.181 399.791 890.455 417.384 888.035 434.84Z" fill="#EFBD37"/>
</svg>
