<svg width="768" height="799" viewBox="0 0 768 799" fill="none" xmlns="http://www.w3.org/2000/svg">
<path opacity="0.18" d="M-332.063 518.562C-324.611 584.543 -272.453 648.518 -192.178 682.6C-137.437 705.82 -75.1115 715.158 -11.6271 722.442L1.1228 723.863C18.8401 725.867 36.6238 727.745 54.308 729.801C73.6812 732.034 92.955 734.445 111.931 737.414C204.922 751.854 293.409 779.54 386.633 792.508C394.812 793.65 403.025 794.69 411.271 795.578C424.849 797.05 438.659 798.116 452.601 798.573C461.575 798.928 470.616 799.055 479.624 798.979C485.187 798.979 490.751 798.776 496.182 798.573C506.912 798.167 517.575 797.456 528.139 796.39C539.565 795.274 550.857 793.853 561.918 791.797C579.255 788.819 596.204 784.64 612.554 779.312C626.174 774.893 639.223 769.507 651.532 763.222C667.52 755.099 681.878 745.234 694.153 733.937C716.407 713.331 730.217 688.792 749.524 666.714C804.563 603.829 905.635 558.531 924.876 485.75C942.991 417.384 879.639 350.82 804.464 306.36C729.289 261.899 639.345 230.228 571.721 179.957C458.264 95.7047 349.277 -32.7538 156.936 7.6718C33.1465 33.7594 -255.1 170.872 -295.105 260.884C-312.193 299.279 -290.866 341.025 -297.125 381.044C-301.198 406.98 -316.663 431.215 -325.34 456.541C-332.208 476.766 -334.483 497.746 -332.063 518.562Z" fill="#268D31"/>
</svg>
