<svg width="400" height="335" viewBox="0 0 400 335" fill="none" xmlns="http://www.w3.org/2000/svg">
<path d="M291.258 150.307C356.86 90.097 278.392 20.3504 146.962 40.4748C66.3029 53.1107 -11.1539 135.249 64.7124 241.989C118.513 317.698 306.477 330.216 325.825 263.883C347.245 190.443 222.147 213.189 291.258 150.307ZM282.171 273.175C264.621 280.939 242.253 275.272 231.336 260.294C220.419 245.316 223.321 235.366 240.872 227.601C258.422 219.837 280.789 225.504 291.706 240.482C302.623 255.46 299.213 265.281 282.171 273.175Z" fill="#F6C799"/>
<path d="M178.176 231.047C165.734 215.683 140.825 209.371 121.75 216.75C102.674 224.128 97.4227 242.133 109.865 257.497C122.307 272.861 147.216 279.173 166.291 271.794C184.858 264.287 190.248 245.809 178.176 231.047Z" fill="#2CAECE"/>
<path d="M124.938 159.049C109.865 147.089 85.0994 145.902 68.8914 156.551C52.6835 167.2 51.7753 185.288 66.8479 197.248C81.9205 209.208 106.686 210.395 122.894 199.746C139.102 189.097 140.011 171.009 124.938 159.049Z" fill="#FDF516"/>
<path d="M129.687 94.1015C117.156 82.7852 94.3302 80.5633 79.6917 89.5747C64.5449 98.4573 63.0346 114.866 75.7037 125.708C88.2346 137.024 111.061 139.246 125.699 130.235C140.338 121.224 142.218 105.418 129.687 94.1015Z" fill="#FF5555"/>
<path d="M201.177 62.3522C189.155 51.1648 167.483 48.7266 152.983 57.2643C138.483 65.8019 136.232 81.0051 148.763 92.3213C160.786 103.509 182.457 105.947 196.957 97.4093C211.458 88.8717 213.338 73.0659 201.177 62.3522Z" fill="#83BF4F"/>
<path d="M285.559 78.1373C276.863 66.7751 258.607 60.1141 243.732 62.4508C229.365 64.9164 224.385 76.3751 233.081 87.7373C241.777 99.0995 260.033 105.761 274.909 103.424C289.414 100.484 293.747 89.3707 285.559 78.1373Z" fill="#9156B7"/>
<path d="M238.698 218.367C225.499 224.847 174.565 217.421 174.565 217.421C174.565 217.421 199.698 207.689 218.421 184.271C227.264 173.169 246.559 179.745 252.256 189.529C258.134 198.852 251.898 211.887 238.698 218.367Z" fill="#947151"/>
<path d="M385.13 112.483C390.259 113.708 396.584 124.751 395.45 129.07C389.155 149.405 272.238 190.068 272.238 190.068L261.918 173.481C261.918 173.481 362.818 106.447 385.13 112.483Z" fill="#666666"/>
<path d="M243.8 182.471L254.12 199.058L272.23 190.069L261.91 173.482L243.8 182.471Z" fill="#CCCCCC"/>
</svg>
