<svg width="851" height="447" viewBox="0 0 851 447" fill="none" xmlns="http://www.w3.org/2000/svg">
<path d="M810.665 270.227C760.423 327.913 691.34 339.74 619.283 369.055C547.225 398.37 479.134 445.174 399.144 446.12C319.154 447.066 260.318 423.897 222.636 376.614C184.955 329.331 129.424 285.358 56.0445 244.695C-17.3351 204.031 -18.6573 162.895 52.0781 121.286C122.813 79.6772 183.302 46.5791 233.544 21.992C283.786 -2.59512 362.292 24.8895 420.467 30.0906C478.642 35.2917 528.715 0.478243 619.283 0.00541404C709.851 -0.467415 776.95 30.0302 820.581 91.4979C864.212 152.966 860.907 212.542 810.665 270.227Z" fill="#F7CDCD"/>
<path d="M233.535 299.503C232.795 294.214 230.586 289.253 227.316 285.134C223.638 280.5 219.308 277.223 214.734 275.817L238.735 226.549C238.248 230.293 239.64 234.224 242.093 237.314C245.771 241.948 252.101 244.478 257.04 243.075C254.962 248.082 255.58 254.306 259.259 258.94C262.938 263.574 269.268 266.104 274.206 264.702C272.129 269.709 272.747 275.932 276.425 280.567C278.878 283.656 282.391 285.904 286.147 286.28L233.535 299.503Z" fill="#F6BA51"/>
<path d="M233.534 299.501L208.963 305.576C205.086 306.136 201.816 302.017 203.241 298.367L214.733 275.815C219.716 277.736 224.046 281.013 227.316 285.132C231.116 288.831 232.795 294.213 233.534 299.501Z" fill="#53C2EF"/>
<path d="M460.509 148.717L286.555 286.797C282.799 286.421 279.286 284.173 276.834 281.084C273.155 276.449 272.128 269.71 274.615 265.219C269.267 266.106 263.346 264.091 259.667 259.457C255.989 254.823 254.962 248.084 257.448 243.592C252.1 244.479 246.179 242.465 242.501 237.831C240.048 234.741 238.656 230.81 239.143 227.066L413.096 88.9868C413.627 88.5657 413.627 88.5657 414.157 88.1449C422.643 81.4093 440.694 88.9034 454.182 105.896C467.261 122.373 469.524 141.561 460.509 148.717Z" fill="#53C2EF"/>
<path d="M518.724 174.249C515.278 171.764 512.996 168.076 512.377 163.988C511.757 159.901 512.849 155.744 515.415 152.424L563.514 90.7351C566.105 87.4334 569.956 85.2473 574.225 84.654C578.494 84.0607 582.835 85.1084 586.3 87.5685L642.858 127.988L575.276 214.679L518.724 174.249Z" fill="#F4F4F4"/>
<path d="M642.858 127.987L699.407 168.398C702.86 170.879 705.147 174.568 705.767 178.658C706.387 182.748 705.29 186.907 702.717 190.226L654.616 251.902C652.027 255.209 648.175 257.4 643.902 257.993C639.63 258.587 635.286 257.536 631.822 255.07L575.276 214.678L642.858 127.987Z" fill="#FF5245"/>
<path d="M631.839 255.083L628.728 252.86L696.294 166.178L699.42 168.4C702.868 170.883 705.15 174.57 705.767 178.658C706.385 182.746 705.287 186.902 702.715 190.218L654.615 251.894C652.029 255.2 648.182 257.391 643.914 257.988C639.646 258.586 635.305 257.541 631.839 255.083Z" fill="#F43B37"/>
</svg>
