<svg width="256" height="253" viewBox="0 0 256 253" fill="none" xmlns="http://www.w3.org/2000/svg">
<path d="M51.044 31.8178C49.7958 36.5764 47.6848 41.343 44.2666 44.8283C40.4214 48.7489 36.1325 51.3794 31.8264 52.284L47.8104 98.7281C47.7769 95.2764 49.4693 91.8083 52.0327 89.1945C55.8779 85.2739 61.9011 83.4894 66.2324 85.1734C64.892 80.4399 66.1318 74.8189 69.977 70.8983C73.8222 66.9777 79.8454 65.1932 84.1767 66.8772C82.8363 62.1437 84.0761 56.5228 87.9213 52.6021C90.4848 49.9884 93.9194 48.229 97.3711 48.1955L51.044 31.8178Z" fill="#F6BA51"/>
<path d="M51.0433 31.8166L29.8317 24.6877C26.372 23.8584 22.9542 27.3433 23.8504 30.7863L31.3899 51.8555C36.1234 50.5151 40.4123 47.8846 43.8302 44.3997C47.6842 41.3418 49.7951 36.5753 51.0433 31.8166Z" fill="#80C350"/>
<path d="M240.5 188L97.7975 47.7594C94.3458 47.7929 90.9112 49.5523 88.3477 52.166C84.5025 56.0866 82.8353 62.1433 84.603 66.4411C79.8444 65.1928 74.2486 66.5416 70.4034 70.4622C66.5582 74.3828 64.891 80.4395 66.6587 84.7373C61.9001 83.489 56.3043 84.8378 52.4591 88.7584C49.8956 91.3721 48.2033 94.8402 48.2368 98.292L191.121 238.429C191.557 238.856 191.557 238.856 191.993 239.283C198.963 246.119 216.169 240.774 230.269 226.399C243.94 212.459 247.905 195.263 240.5 188Z" fill="#80C350"/>
</svg>
