<svg width="394" height="308" viewBox="0 0 394 308" fill="none" xmlns="http://www.w3.org/2000/svg">
<path d="M186.977 217.69C176.241 203.944 156.621 200.194 139.711 203.729C123.333 208.175 107.944 215.676 94.3538 225.839C80.8117 235.986 65.7312 243.899 49.6849 249.277C32.0886 254.05 9.44317 249.842 2.37097 233.07C0.469638 227.826 -0.0465352 222.181 0.872341 216.68C1.7912 211.18 4.11402 206.01 7.61613 201.671C14.5904 193.036 23.6568 186.327 33.9547 182.182C84.766 159.658 139.087 168.667 146.099 168.618C152.297 168.448 158.377 166.894 163.895 164.068C169.413 161.243 174.227 157.218 177.986 152.289C182.927 145.229 185.111 136.603 184.124 128.04C183.138 119.478 179.049 111.571 172.631 105.815C165.079 98.5942 156.846 92.1199 148.048 86.4829C139.611 81.2611 129.843 75.6272 129.147 64.7648C129.008 61.8926 129.529 59.027 130.671 56.3885C131.813 53.75 133.545 51.4089 135.735 49.5455C140.688 45.7997 146.758 43.8296 152.968 43.9519C159.178 44.0742 165.168 46.2819 169.973 50.2199C177.62 56.3124 183.667 64.176 187.592 73.1301C190.899 82.3069 194.827 91.2484 199.348 99.8926C208.939 114.327 223.689 104.513 228.497 98.2314C233.028 91.6161 234.767 83.4798 233.336 75.5877C232.387 71.2632 231.846 66.8593 231.721 62.434C231.693 60.2145 232.265 58.0288 233.377 56.1082C234.489 54.1876 236.099 52.6033 238.038 51.5231C244.498 48.8164 252.204 55.6885 252.989 62.8842C252.925 70.1811 251.322 77.3817 248.285 84.0153C246.755 87.3297 246.065 90.9703 246.276 94.6153C246.487 98.2604 247.592 101.798 249.494 104.915C256.481 106.869 263.853 106.991 270.899 105.271C277.946 103.55 284.43 100.045 289.728 95.0914C300.52 85.1512 309.019 72.98 314.633 59.4231C320.297 45.9733 327.095 33.0295 334.951 20.7315C344.611 6.93175 360.963 -5.31217 378.113 4.3064C383.368 7.39421 387.536 12.037 390.041 17.5937C392.874 23.6231 393.78 30.3781 392.638 36.9394C391.495 43.5007 388.358 49.5498 383.654 54.2633C360.756 77.189 329.421 95.8095 306.568 117.773C301.625 122.212 297.705 127.671 295.077 133.773C293.112 140.97 306.822 147.794 314.476 147.653C326.048 147.84 337.446 144.838 347.423 138.978C351.533 135.375 356.531 132.936 361.901 131.914C367.309 131.546 378.539 132.137 378.956 137.591C381.411 168.528 344.417 161.621 336.533 161.258C328.748 160.178 320.846 162.116 314.445 166.674C312.551 168.447 311.326 170.82 310.977 173.392C310.629 175.964 311.178 178.577 312.532 180.792C317.764 189.499 327.208 192.062 335.737 195.908C346.416 200.872 355.873 208.125 363.437 217.152C371.002 226.179 376.487 236.76 379.505 248.142C382.218 256.889 381.952 266.287 378.748 274.864C377.112 279.089 374.187 282.692 370.389 285.161C366.59 287.63 362.11 288.841 357.584 288.622C354.222 288.037 351.033 286.709 348.248 284.736C345.463 282.763 343.153 280.194 341.487 277.216C337.466 271.69 335.006 265.184 334.367 258.381C333.599 215.847 301.27 196.472 297.147 198.765C290.733 202.342 285.781 199.961 285.924 207.34C286.311 231.907 287.477 256.519 289.331 280.994C289.493 284.878 288.78 288.749 287.243 292.32C285.707 295.891 283.387 299.07 280.456 301.622C278.645 303.55 276.469 305.098 274.054 306.177C271.64 307.256 269.035 307.844 266.39 307.907C254.198 307.637 249.331 296.547 249.689 286.647C250.136 272.621 258.651 260.426 265.47 248.278C270.007 239.642 271.638 229.773 270.122 220.134C269.718 218.365 268.913 216.712 267.77 215.303C266.627 213.893 265.175 212.765 263.528 212.004C261.881 211.243 260.081 210.87 258.267 210.914C256.453 210.958 254.674 211.417 253.066 212.257C248.851 214.55 247.617 218.997 244.094 226.744C238.879 238.388 235.452 251.36 226.338 260.209C224.17 262.632 221.404 264.441 218.315 265.456C215.227 266.471 211.925 266.655 208.742 265.991C205.412 264.173 201.948 262.612 198.38 261.32C191.367 260.085 185.689 266.963 182.073 272.968C178.457 278.974 174.062 285.117 167.508 285.899C165.758 285.914 164.025 285.548 162.43 284.826C160.835 284.103 159.417 283.043 158.273 281.717C157.129 280.392 156.287 278.833 155.807 277.15C155.326 275.467 155.217 273.699 155.488 271.97C156.168 268.178 157.661 264.579 159.866 261.421C162.072 258.263 164.936 255.621 168.261 253.677C173.877 250.241 179.263 246.442 184.385 242.304C187.978 239.376 190.267 235.145 190.753 230.534C191.238 225.923 189.881 221.306 186.977 217.69Z" fill="#F8C0C0" fill-opacity="0.75"/>
</svg>
