<svg width="598" height="1147" viewBox="0 0 598 1147" fill="none" xmlns="http://www.w3.org/2000/svg">
<path opacity="0.18" d="M0.778564 402.67C6.66479 307.967 47.8685 216.141 111.283 167.224C154.527 133.895 203.763 120.491 253.913 110.038L263.985 107.998C277.982 105.12 292.03 102.425 306 99.4746C321.304 96.2693 336.53 92.809 351.52 88.5474C424.981 67.822 494.883 28.0831 568.527 9.47046C574.989 7.8313 581.477 6.33801 587.991 5.06311C598.717 2.95056 609.626 1.42078 620.64 0.765137C627.729 0.255127 634.871 0.072998 641.987 0.182251C646.382 0.182251 650.777 0.473755 655.068 0.765137C663.544 1.3479 671.968 2.36768 680.313 3.89746C689.339 5.50012 698.26 7.53992 706.998 10.4902C720.693 14.7648 734.082 20.7631 746.998 28.411C757.757 34.7527 768.066 42.4841 777.79 51.5039C790.42 63.163 801.762 77.323 811.459 93.5375C829.039 123.114 839.948 158.336 855.2 190.025C898.68 280.284 978.524 345.301 993.723 449.766C1008.03 547.893 957.987 643.433 898.602 707.249C839.216 771.064 768.162 816.521 714.741 888.677C625.113 1009.61 539.017 1193.98 387.073 1135.96C289.283 1098.52 61.5769 901.717 29.9743 772.521C16.4752 717.411 33.3229 657.493 28.3785 600.052C25.1607 562.827 12.9435 528.042 6.08929 491.69C0.66333 462.661 -1.13312 432.548 0.778564 402.67Z" fill="#EFBD37"/>
</svg>
