<svg width="1261" height="670" viewBox="0 0 1261 670" fill="none" xmlns="http://www.w3.org/2000/svg">
<path opacity="0.18" d="M1260.06 434.84C1252.61 490.167 1200.45 543.814 1120.18 572.393C1065.44 591.864 1003.11 599.695 939.627 605.802L926.877 606.994C909.16 608.675 891.376 610.25 873.692 611.973C854.319 613.846 835.045 615.867 816.069 618.357C723.078 630.465 634.591 653.682 541.367 664.556C533.188 665.513 524.975 666.386 516.729 667.131C503.151 668.365 489.341 669.259 475.399 669.642C466.425 669.94 457.384 670.046 448.376 669.982C442.813 669.982 437.249 669.812 431.818 669.642C421.088 669.301 410.425 668.705 399.86 667.812C388.435 666.875 377.143 665.684 366.082 663.96C348.745 661.463 331.796 657.958 315.446 653.49C301.826 649.785 288.777 645.268 276.468 639.999C260.48 633.187 246.122 624.915 233.847 615.442C211.593 598.163 197.783 577.585 178.476 559.071C123.437 506.34 22.3649 468.355 3.12423 407.325C-14.9905 349.997 48.3614 294.18 123.536 256.897C198.711 219.615 288.655 193.058 356.279 150.902C469.736 80.253 578.723 -27.4657 771.064 6.43317C894.854 28.3089 1183.1 143.284 1223.1 218.764C1240.19 250.96 1218.87 285.966 1225.12 319.524C1229.2 341.272 1244.66 361.594 1253.34 382.832C1260.21 399.791 1262.48 417.384 1260.06 434.84Z" fill="#EFBD37"/>
</svg>
