<svg width="1177" height="863" viewBox="0 0 1177 863" fill="none" xmlns="http://www.w3.org/2000/svg">
<path d="M560.881 21C560.881 15.4772 565.358 11 570.881 11H607.779C613.302 11 617.779 15.4772 617.779 21V80.6577C617.779 86.1806 613.302 90.6577 607.779 90.6577H570.881C565.358 90.6577 560.881 86.1806 560.881 80.6577V21Z" fill="#8B6143"/>
<path d="M292.58 89.5654C292.58 84.0426 297.057 79.5654 302.58 79.5654H876.544C882.067 79.5654 886.544 84.0426 886.544 89.5654V119.348H292.58V89.5654Z" fill="#B9773B"/>
<path d="M0 111.77C0 106.247 4.47715 101.77 10 101.77H1163.12C1168.65 101.77 1173.12 106.247 1173.12 111.77V831.911C1173.12 837.434 1168.65 841.911 1163.12 841.911H9.99999C4.47715 841.911 0 837.434 0 831.911V111.77Z" fill="#F3F3F3"/>
<rect y="822" width="1176" height="40" rx="10" fill="#B9773B"/>
</svg>
