<svg width="279" height="225" viewBox="0 0 279 225" fill="none" xmlns="http://www.w3.org/2000/svg">
<path d="M246.308 54.5502C241.863 52.4427 238.07 49.1368 235.278 45.133C232.137 40.6285 230.346 35.9268 230.254 31.5276L181.654 38.6387C185.052 39.2446 188.147 41.5497 190.241 44.5527C193.382 49.0571 194.021 55.3066 191.564 59.2513C196.464 58.8102 201.758 61.0691 204.9 65.5735C208.041 70.078 208.679 76.3274 206.223 80.2721C211.123 79.831 216.417 82.0899 219.558 86.5944C221.652 89.5974 222.745 93.2983 222.139 96.6966L246.308 54.5502Z" fill="#F6BA51"/>
<path d="M246.308 54.5514L257.74 34.6771C259.195 31.4307 256.403 27.4269 252.854 27.6703L230.253 31.5284C230.694 36.4282 232.485 41.13 235.277 45.1338C237.918 49.9874 242.212 52.9446 246.308 54.5514Z" fill="#F16D6E"/>
<path d="M57.2044 212.277L221.367 97.8004C221.973 94.4021 220.88 90.7012 218.786 87.6982C215.645 83.1938 210.002 80.4343 205.451 81.376C207.558 76.9306 207.269 71.1819 204.128 66.6774C200.986 62.1729 195.343 59.4134 190.792 60.3551C192.9 55.9098 192.61 50.161 189.469 45.6565C187.375 42.6536 184.28 40.3485 180.882 39.7425L16.7188 154.219C16.2181 154.568 16.2181 154.568 15.718 154.917C7.70986 160.501 9.77728 178.4 21.2947 194.916C32.8121 211.432 48.6962 218.21 57.2044 212.277Z" fill="#F16C6D"/>
</svg>
