<svg width="162" height="11" viewBox="0 0 162 11" fill="none" xmlns="http://www.w3.org/2000/svg">
<path fill-rule="evenodd" clip-rule="evenodd" d="M3.72402 2.01467C7.15753 2.67629 16.181 2.70938 40.6762 2.77554C78.9264 2.87479 109.284 3.60257 117.721 4.66118C118.391 4.76042 64.7736 5.48821 59.2675 4.95891C50.6837 4.09879 9.69078 4.82658 1.44197 5.81902C-0.90287 6.08367 -0.0235459 7.00996 1.50479 7.20845C3.89149 7.53926 10.298 7.50617 27.8634 7.44001C40.2156 7.40693 138.49 8.16781 149.23 9.52414C155.259 10.285 158.923 10.9797 160.598 10.8143C162.001 10.682 162.022 10.285 160.807 9.19333C159.991 8.46554 160.912 8.03548 161.498 7.83699C162.398 7.50618 162.022 6.38141 160.891 5.48821C159.363 4.2642 156.725 4.29728 157.981 5.52129C158.253 5.78594 158.316 6.44757 157.353 6.31524C154.547 5.91827 134.721 3.2056 129.34 2.74246C71.8919 -2.28591 15.825 1.38612 3.9543 0.162108C-0.253852 -0.301032 1.67229 1.61769 3.72402 2.01467Z" fill="#EFBD37"/>
</svg>
