<svg width="197" height="173" viewBox="0 0 197 173" fill="none" xmlns="http://www.w3.org/2000/svg">
<path d="M28.005 64.5448C15.8779 55.9497 0.000473868 7.10026 0.000473868 7.10026C0.000473868 7.10026 20.6065 24.7262 51.3711 30.0382C65.9406 32.5271 68.368 52.8526 61.6086 62.6461C55.3704 72.3773 40.1321 73.14 28.005 64.5448Z" fill="#947151"/>
<path d="M194.95 143.456C196.093 148.606 188.416 159.566 183.788 160.647C161.564 164.887 70.1012 80.6623 70.1012 80.6623L81.2631 63.4712C81.2631 63.4712 190.648 120.712 194.95 143.456Z" fill="#666666"/>
<path d="M64.5268 51.7191L53.3648 68.9101L70.097 80.6555L81.2589 63.4644L64.5268 51.7191Z" fill="#CCCCCC"/>
<path d="M20.389 52.4994C10.348 45.2674 0.000343556 7.11319 0.000343556 7.11319C0.000343556 7.11319 16.8368 21.7068 43.5367 27.4698C56.1832 30.1784 56.8083 45.8216 50.1261 52.9182C43.9075 59.9964 30.4299 59.7314 20.389 52.4994Z" fill="#FACEC7"/>
</svg>
