<svg width="734" height="748" viewBox="0 0 734 748" fill="none" xmlns="http://www.w3.org/2000/svg">
<path opacity="0.18" d="M732.985 370.07C739.561 428.734 712.634 492.622 659.387 534.841C623.073 563.614 578.593 581.471 532.876 597.718L523.687 600.945C510.923 605.455 498.087 609.864 485.358 614.413C471.409 619.381 457.566 624.487 444.046 630.034C377.773 657.118 317.267 695.046 250.552 720.884C244.699 723.155 238.802 725.342 232.854 727.402C223.06 730.802 213.021 733.884 202.771 736.456C196.185 738.165 189.507 739.686 182.817 741.024C178.694 741.892 174.533 742.582 170.471 743.252C162.444 744.572 154.41 745.615 146.385 746.334C137.713 747.142 129.082 747.665 120.508 747.598C107.112 747.706 93.7846 746.707 80.6896 744.613C69.7849 742.886 59.1254 740.227 48.8507 736.67C35.5114 732.084 23.061 725.725 11.8922 717.794C-8.38003 703.306 -23.1147 684.073 -41.4724 667.843C-93.7958 621.623 -177.011 597.906 -204.617 537.478C-230.578 480.723 -195.83 412.833 -148.266 362.364C-100.703 311.894 -39.8471 270.268 1.05482 215.911C69.6957 124.793 126.917 -4.15259 276.884 1.08501C373.415 4.51679 612.191 79.061 658.346 151.268C678.051 182.065 669.898 221.771 681.875 255.672C689.65 277.639 705.556 296.349 716.63 317.067C725.43 333.622 730.962 351.552 732.985 370.07Z" fill="#024B06"/>
</svg>
