<svg width="610" height="610" viewBox="0 0 610 610" fill="none" xmlns="http://www.w3.org/2000/svg">
<g clip-path="url(#clip0_1845_2610)">
<path d="M239.501 209.235L196.255 206.645L156.953 191.189L204.796 136.14C209.091 131.198 217.154 132.96 218.993 139.244L239.501 209.235Z" fill="#DD263D"/>
<path d="M167.546 536.814L90.8069 520.038C87.5996 519.337 85.5666 516.167 86.268 512.959L156.627 191.117L239.174 209.163L167.546 536.814Z" fill="#E44F50"/>
<path d="M244.414 210.31L205.105 201.717L133.477 529.365L172.786 537.958L244.414 210.31Z" fill="#DD263D"/>
<path d="M227.198 263.946L144.65 245.9L100.538 447.683L183.086 465.729L227.198 263.946Z" fill="#FBD6DB"/>
<path d="M345.18 121.475L303.355 119.196L262.633 103.429L310.475 48.3804C314.771 43.4378 322.834 45.2004 324.674 51.4844L345.18 121.475Z" fill="#EF9325"/>
<path d="M344.85 121.403L262.303 103.357L167.544 536.811L250.092 554.857L344.85 121.403Z" fill="#F5BA3D"/>
<path d="M340.947 170.663L300.328 161.783L216.025 547.411L256.643 556.291L340.947 170.663Z" fill="#EF9325"/>
<path d="M416.706 188.363L374.674 186.039L334.158 170.317L382.001 115.269C386.296 110.326 394.359 112.089 396.199 118.373L416.706 188.363Z" fill="#00AF64"/>
<path d="M416.706 188.362L334.158 170.316L250.093 554.857L332.64 572.903L416.706 188.362Z" fill="#49C158"/>
<path d="M230.542 248.655L147.994 230.609L144.652 245.896L227.2 263.942L230.542 248.655Z" fill="#DD263D"/>
<path d="M344.851 121.401L310.783 113.953L216.025 547.406L250.092 554.854L344.851 121.401Z" fill="#EF9325"/>
<path d="M423.913 189.939L382.639 180.916L298.573 565.456L339.847 574.479L423.913 189.939Z" fill="#00AF64"/>
<path d="M183.085 465.73L100.537 447.684L97.1952 462.971L179.743 481.017L183.085 465.73Z" fill="#DD263D"/>
<path d="M230.54 248.655L196.473 241.207L193.131 256.494L227.198 263.942L230.54 248.655Z" fill="#B51622"/>
<path d="M183.085 465.729L149.018 458.281L145.676 473.568L179.743 481.016L183.085 465.729Z" fill="#B51622"/>
<path d="M227.196 263.948L193.129 256.5L149.017 458.282L183.084 465.73L227.196 263.948Z" fill="#EDC3CE"/>
<path d="M504.088 184.295L462.553 180.707L421.541 166.249L469.383 111.201C473.679 106.258 481.742 108.021 483.582 114.305L504.088 184.295Z" fill="#447BCC"/>
<path d="M409.379 589.681L332.64 572.905L421.541 166.248L504.088 184.294L416.458 585.142C415.757 588.349 412.587 590.382 409.379 589.681Z" fill="#588EED"/>
<path d="M470.077 176.86L382.446 577.708C381.745 580.915 378.108 582.846 374.322 582.018L408.333 589.453C412.118 590.281 415.755 588.351 416.457 585.143L504.088 184.295L470.077 176.86Z" fill="#447BCC"/>
<path d="M309.745 281.993L227.197 263.947L183.085 465.73L265.632 483.776L309.745 281.993Z" fill="#F9F9D7"/>
<path d="M313.087 266.7L230.539 248.654L227.197 263.941L309.745 281.987L313.087 266.7Z" fill="#F47D20"/>
<path d="M265.631 483.775L183.084 465.729L179.742 481.015L262.29 499.061L265.631 483.775Z" fill="#F47D20"/>
<path d="M392.292 300.038L309.744 281.992L265.632 483.775L348.179 501.821L392.292 300.038Z" fill="#E0F7DA"/>
<path d="M395.635 284.747L313.088 266.701L309.746 281.988L392.293 300.034L395.635 284.747Z" fill="#00AF64"/>
<path d="M348.18 501.821L265.633 483.775L262.291 499.062L344.838 517.108L348.18 501.821Z" fill="#00AF64"/>
<path d="M474.838 318.085L392.291 300.039L348.179 501.822L430.726 519.868L474.838 318.085Z" fill="#D0DDF4"/>
<path d="M478.182 302.792L395.635 284.746L392.293 300.033L474.84 318.079L478.182 302.792Z" fill="#447BCC"/>
<path d="M430.727 519.866L348.18 501.82L344.838 517.107L427.385 535.153L430.727 519.866Z" fill="#447BCC"/>
<path d="M313.087 266.702L279.02 259.254L275.678 274.541L309.745 281.988L313.087 266.702Z" fill="#DD6B1F"/>
<path d="M265.632 483.776L231.564 476.328L228.223 491.615L262.29 499.063L265.632 483.776Z" fill="#DD6B1F"/>
<path d="M309.743 281.993L275.676 274.545L231.563 476.327L265.631 483.775L309.743 281.993Z" fill="#EFECCA"/>
<path d="M395.634 284.746L361.566 277.299L358.224 292.586L392.292 300.033L395.634 284.746Z" fill="#009652"/>
<path d="M348.179 501.821L314.111 494.373L310.769 509.66L344.837 517.108L348.179 501.821Z" fill="#009652"/>
<path d="M392.292 300.039L358.225 292.592L314.112 494.374L348.18 501.822L392.292 300.039Z" fill="#CBE5C6"/>
<path d="M478.183 302.793L444.115 295.346L440.773 310.633L474.841 318.08L478.183 302.793Z" fill="#447BCC"/>
<path d="M430.728 519.868L396.66 512.42L393.318 527.707L427.386 535.154L430.728 519.868Z" fill="#447BCC"/>
<path d="M474.839 318.084L440.771 310.637L396.659 512.419L430.727 519.867L474.839 318.084Z" fill="#BACAE0"/>
<path d="M168.868 330.617C174.295 331.803 179.657 328.365 180.843 322.938C182.03 317.511 178.592 312.149 173.165 310.963C167.738 309.776 162.376 313.214 161.19 318.641C160.003 324.069 163.441 329.43 168.868 330.617Z" fill="#58595B"/>
<path d="M161.519 364.238C166.946 365.424 172.307 361.986 173.494 356.559C174.68 351.132 171.242 345.77 165.815 344.584C160.388 343.397 155.026 346.835 153.84 352.262C152.654 357.69 156.091 363.051 161.519 364.238Z" fill="#58595B"/>
<path d="M154.165 397.872C159.592 399.059 164.954 395.621 166.14 390.194C167.327 384.767 163.889 379.405 158.462 378.219C153.034 377.032 147.673 380.47 146.486 385.897C145.3 391.324 148.738 396.686 154.165 397.872Z" fill="#58595B"/>
<path d="M251.415 348.663C256.842 349.85 262.204 346.412 263.39 340.985C264.577 335.558 261.139 330.196 255.712 329.01C250.284 327.823 244.923 331.261 243.736 336.688C242.55 342.115 245.988 347.477 251.415 348.663Z" fill="#58595B"/>
<path d="M244.065 382.285C249.493 383.471 254.854 380.033 256.041 374.606C257.227 369.179 253.789 363.817 248.362 362.631C242.935 361.444 237.573 364.882 236.387 370.309C235.2 375.737 238.638 381.098 244.065 382.285Z" fill="#58595B"/>
<path d="M236.712 415.919C242.139 417.106 247.501 413.668 248.687 408.241C249.874 402.813 246.436 397.452 241.009 396.265C235.581 395.079 230.22 398.517 229.033 403.944C227.847 409.371 231.285 414.733 236.712 415.919Z" fill="#58595B"/>
<path d="M333.964 366.708C339.391 367.895 344.753 364.457 345.939 359.03C347.126 353.602 343.688 348.241 338.261 347.055C332.833 345.868 327.472 349.306 326.285 354.733C325.099 360.16 328.537 365.522 333.964 366.708Z" fill="#58595B"/>
<path d="M326.612 400.331C332.04 401.518 337.401 398.08 338.588 392.653C339.774 387.226 336.336 381.864 330.909 380.678C325.482 379.491 320.12 382.929 318.934 388.356C317.747 393.783 321.185 399.145 326.612 400.331Z" fill="#58595B"/>
<path d="M319.261 433.964C324.688 435.151 330.05 431.713 331.236 426.286C332.422 420.858 328.985 415.497 323.557 414.31C318.13 413.124 312.769 416.562 311.582 421.989C310.396 427.416 313.834 432.778 319.261 433.964Z" fill="#58595B"/>
<path d="M417.821 385.04C423.249 386.227 428.61 382.789 429.797 377.362C430.983 371.935 427.545 366.573 422.118 365.387C416.691 364.2 411.329 367.638 410.143 373.065C408.956 378.492 412.394 383.854 417.821 385.04Z" fill="#58595B"/>
<path d="M410.472 418.663C415.899 419.85 421.26 416.412 422.447 410.985C423.633 405.558 420.196 400.196 414.768 399.01C409.341 397.823 403.98 401.261 402.793 406.688C401.607 412.115 405.044 417.477 410.472 418.663Z" fill="#58595B"/>
<path d="M403.118 452.298C408.545 453.485 413.907 450.047 415.093 444.62C416.28 439.192 412.842 433.831 407.415 432.644C401.988 431.458 396.626 434.896 395.44 440.323C394.253 445.75 397.691 451.112 403.118 452.298Z" fill="#58595B"/>
</g>
<defs>
<clipPath id="clip0_1845_2610">
<rect width="511.999" height="511.999" fill="white" transform="translate(109.348) rotate(12.3316)"/>
</clipPath>
</defs>
</svg>
