<svg width="321" height="78" viewBox="0 0 321 78" fill="none" xmlns="http://www.w3.org/2000/svg">
<path d="M304.673 71.8127C308.593 72.9788 314.229 77.9996 311.638 77.9996C309.953 77.9996 302.73 73.5619 302.73 72.5253C302.73 71.0353 304.447 71.7479 304.673 71.8127Z" fill="url(#paint0_linear_2339_3104)"/>
<path d="M309.921 38.6755C313.29 38.1572 316.885 38.2223 318.181 38.8054C321.744 40.3926 320.513 41.5587 315.233 41.5587C310.18 41.5587 305.969 39.2586 309.921 38.6755Z" fill="url(#paint1_linear_2339_3104)"/>
<path d="M307.459 60.7354C306.779 59.6341 308.107 59.3099 310.666 59.8929C315.557 61.0267 319.379 62.9702 318.57 63.942C317.598 65.1081 308.56 62.517 307.459 60.7354Z" fill="url(#paint2_linear_2339_3104)"/>
<path d="M285.433 61.0269C286.016 60.8002 285.983 60.8002 287.57 61.1889C291.555 62.1282 295.927 64.3309 295.927 65.3999C295.927 66.9547 291.781 65.0759 287.959 64.0718C285.562 63.4239 284.007 61.5776 285.433 61.0269Z" fill="url(#paint3_linear_2339_3104)"/>
<path d="M289.578 53.9644C286.112 52.0856 288.606 50.8547 294.016 51.7617C296.51 52.1828 297.968 53.2517 297.061 53.9968C296.316 54.6122 290.776 54.6122 289.578 53.9644Z" fill="url(#paint4_linear_2339_3104)"/>
<path d="M305.483 21.2491C309.305 19.2408 309.629 19.144 310.795 19.7594C312.091 20.4073 311.929 20.8928 309.791 22.4801C306.098 25.201 303.863 25.9787 302.47 25.007C301.013 24.0028 301.628 23.2575 305.483 21.2491Z" fill="url(#paint5_linear_2339_3104)"/>
<path d="M257.51 9.65143C256.473 9.65143 249.153 4.66321 248.57 3.56187C247.792 2.13661 249.833 1.52122 252.262 2.49299C257.672 4.63088 261.332 9.65143 257.51 9.65143Z" fill="url(#paint6_linear_2339_3104)"/>
<path d="M250.578 23.1602C251.874 23.387 256.506 25.7192 257.218 26.4966C259.065 28.5373 255.696 28.5697 251.097 26.5614C245.881 24.2616 245.59 22.2532 250.578 23.1602Z" fill="url(#paint7_linear_2339_3104)"/>
<path d="M241.8 13.8963C240.31 14.8357 230.495 12.4387 230.495 11.143C230.495 10.1064 233.961 10.0092 237.524 10.9486C241.217 11.9204 242.998 13.1189 241.8 13.8963Z" fill="url(#paint8_linear_2339_3104)"/>
<path d="M290.485 27.824C291.295 28.2775 291.198 28.7634 289.87 30.5774C287.635 33.5899 285.983 34.3997 284.622 33.1364C282.841 31.452 288.283 26.5283 290.485 27.824Z" fill="url(#paint9_linear_2339_3104)"/>
<path d="M288.963 42.3684C285.983 41.3966 286.501 40.1333 290.744 37.8658C292.753 36.7969 292.85 36.7645 293.822 37.1532C296.543 38.2221 291.846 43.2753 288.963 42.3684Z" fill="url(#paint10_linear_2339_3104)"/>
<path d="M273.804 27.0142C271.86 24.7791 269.851 20.2118 270.856 19.2076C271.665 18.3978 272.832 18.657 274.16 19.8555C275.779 21.3131 276.945 24.0989 276.945 26.4959C276.945 26.5283 277.172 30.8365 273.804 27.0142Z" fill="url(#paint11_linear_2339_3104)"/>
<path d="M292.3 13.0202C289.255 14.6398 287.765 12.8583 288.38 8.29095C288.834 4.88963 290.842 3.3348 292.85 4.88963C293.531 5.40791 293.498 5.86156 293.498 11.0767C293.498 11.8865 293.045 12.6315 292.3 13.0202Z" fill="url(#paint12_linear_2339_3104)"/>
<path d="M274.743 44.312C277.302 45.3485 271.439 50.4017 268.621 49.5919C267.131 49.1708 267.098 48.1343 268.459 46.8386C271.277 44.15 272.864 43.5346 274.743 44.312Z" fill="url(#paint13_linear_2339_3104)"/>
<path d="M239.079 54.3853C239.468 55.0008 238.496 55.5518 235.483 56.4587C230.786 57.884 227.547 58.0784 227.547 56.9446C227.58 55.4222 238.269 53.0248 239.079 54.3853Z" fill="url(#paint14_linear_2339_3104)"/>
<path d="M230.528 43.8591C230.268 42.5958 239.533 41.3001 241.249 42.369C242.966 43.438 241.8 43.9562 236.52 44.4745C232.147 44.8956 230.722 44.766 230.528 43.8591Z" fill="url(#paint15_linear_2339_3104)"/>
<path d="M276.136 6.54264C274.095 2.42882 274.646 -0.842994 277.205 0.193559C279.343 1.06815 282.031 8.09743 280.67 9.23116C278.986 10.624 277.788 9.87901 276.136 6.54264Z" fill="url(#paint16_linear_2339_3104)"/>
<path d="M221.976 22.2856C223.596 21.8321 224.632 21.8969 227.871 22.6095C234.512 24.0672 233.475 25.6544 226.381 24.877C221.166 24.2939 219.093 23.063 221.976 22.2856Z" fill="url(#paint17_linear_2339_3104)"/>
<path d="M209.537 51.7953C210.671 50.856 218.38 49.8194 220.291 50.3377C222.041 50.8236 221.49 51.8928 219.385 52.2168C218.64 52.3139 216.437 52.6379 214.526 52.897C209.959 53.5125 207.95 53.091 209.537 51.7953Z" fill="url(#paint18_linear_2339_3104)"/>
<path d="M212.809 40.9109C213.91 40.4574 219.741 40.2631 221.652 40.6518C224.276 41.17 222.656 42.5305 219.158 42.7897C213.359 43.2108 209.829 42.1418 212.809 40.9109Z" fill="url(#paint19_linear_2339_3104)"/>
<path d="M235.742 34.0437C235.386 32.9748 242.415 32.2298 245.978 32.9748C248.051 33.3959 248.57 33.9142 247.63 34.6592C246.237 35.8253 236.163 35.2746 235.742 34.0437Z" fill="url(#paint20_linear_2339_3104)"/>
<path d="M254.789 57.9496C256.926 58.306 257.477 58.7271 256.603 59.3749C255.275 60.3791 247.662 59.7636 247.662 58.6623C247.662 57.6581 250.901 57.3018 254.789 57.9496Z" fill="url(#paint21_linear_2339_3104)"/>
<path d="M274.419 58.5639C276.233 58.9202 277.14 59.6328 276.557 60.2159C275.391 61.4144 267.422 60.7669 267.422 59.5036C267.422 59.0177 268.944 57.4949 274.419 58.5639Z" fill="url(#paint22_linear_2339_3104)"/>
<path d="M270.337 53.7707C271.956 52.7665 278.759 51.9567 279.245 52.7341C279.795 53.6411 277.625 54.6125 273.479 55.3576C270.434 55.9082 268.458 54.9044 270.337 53.7707Z" fill="url(#paint23_linear_2339_3104)"/>
<path d="M258.514 19.3706C257.963 17.6538 260.328 17.6214 262.466 19.3058C267.033 22.9014 269.074 26.8208 266.386 26.8208C265.219 26.8208 259 20.9254 258.514 19.3706Z" fill="url(#paint24_linear_2339_3104)"/>
<path d="M261.105 42.3352C262.109 42.7563 264.83 45.8335 264.83 46.5462C264.83 47.7123 262.434 47.4852 261.203 46.1895C258.644 43.4038 258.579 41.2986 261.105 42.3352Z" fill="url(#paint25_linear_2339_3104)"/>
<path d="M251.323 51.5677C250.837 50.272 253.72 49.7861 256.247 50.7255C259.939 52.1183 261.689 53.4464 260.425 53.9323C259.227 54.3858 251.647 52.4099 251.323 51.5677Z" fill="url(#paint26_linear_2339_3104)"/>
<g opacity="0.8">
<path d="M173.273 53.7958C140.879 62.868 121.353 59.7918 88.4192 54.5258C63.3142 50.5111 18.5926 54.995 3.74533 63.0765C-5.25297 67.9776 3.38549 71.2102 14.6334 66.8305C37.3091 58.0712 71.3228 55.725 102.457 60.7303C135.66 66.1006 156.806 65.527 183.351 58.4883C203.687 53.118 187.76 49.729 173.273 53.7958Z" fill="#383838"/>
</g>
<defs>
<linearGradient id="paint0_linear_2339_3104" x1="309.181" y1="71.4215" x2="307.649" y2="78.0312" gradientUnits="userSpaceOnUse">
<stop offset="0.00120222" stop-color="#F8A301"/>
<stop offset="1" stop-color="#F8BF01"/>
</linearGradient>
<linearGradient id="paint1_linear_2339_3104" x1="316.35" y1="38.2413" x2="316.021" y2="41.7227" gradientUnits="userSpaceOnUse">
<stop offset="0.00120222" stop-color="#F8A301"/>
<stop offset="1" stop-color="#F8BF01"/>
</linearGradient>
<linearGradient id="paint2_linear_2339_3104" x1="314.968" y1="59.4888" x2="314.277" y2="64.4154" gradientUnits="userSpaceOnUse">
<stop offset="0.00120222" stop-color="#F8A301"/>
<stop offset="1" stop-color="#F8BF01"/>
</linearGradient>
<linearGradient id="paint3_linear_2339_3104" x1="292.333" y1="60.7418" x2="291.464" y2="66.1626" gradientUnits="userSpaceOnUse">
<stop offset="0.00120222" stop-color="#F8A301"/>
<stop offset="1" stop-color="#F8BF01"/>
</linearGradient>
<linearGradient id="paint4_linear_2339_3104" x1="294.288" y1="51.3802" x2="293.931" y2="54.5956" gradientUnits="userSpaceOnUse">
<stop offset="0.00120222" stop-color="#F8A301"/>
<stop offset="1" stop-color="#F8BF01"/>
</linearGradient>
<linearGradient id="paint5_linear_2339_3104" x1="308.404" y1="19.2724" x2="307.1" y2="25.4954" gradientUnits="userSpaceOnUse">
<stop offset="0.00120222" stop-color="#F8A301"/>
<stop offset="1" stop-color="#F8BF01"/>
</linearGradient>
<linearGradient id="paint6_linear_2339_3104" x1="255.608" y1="1.82584" x2="253.681" y2="9.63563" gradientUnits="userSpaceOnUse">
<stop offset="0.00120222" stop-color="#F8A301"/>
<stop offset="1" stop-color="#F8BF01"/>
</linearGradient>
<linearGradient id="paint7_linear_2339_3104" x1="254.24" y1="22.8065" x2="253.351" y2="28.2093" gradientUnits="userSpaceOnUse">
<stop offset="0.00120222" stop-color="#F8A301"/>
<stop offset="1" stop-color="#F8BF01"/>
</linearGradient>
<linearGradient id="paint8_linear_2339_3104" x1="238.369" y1="10.2031" x2="237.909" y2="14.2869" gradientUnits="userSpaceOnUse">
<stop offset="0.00120222" stop-color="#F8A301"/>
<stop offset="1" stop-color="#F8BF01"/>
</linearGradient>
<linearGradient id="paint9_linear_2339_3104" x1="288.81" y1="27.4529" x2="286.92" y2="33.4859" gradientUnits="userSpaceOnUse">
<stop offset="0.00120222" stop-color="#F8A301"/>
<stop offset="1" stop-color="#F8BF01"/>
</linearGradient>
<linearGradient id="paint10_linear_2339_3104" x1="292.177" y1="36.7834" x2="290.74" y2="42.4469" gradientUnits="userSpaceOnUse">
<stop offset="0.00120222" stop-color="#F8A301"/>
<stop offset="1" stop-color="#F8BF01"/>
</linearGradient>
<linearGradient id="paint11_linear_2339_3104" x1="274.878" y1="18.4876" x2="270.424" y2="26.8035" gradientUnits="userSpaceOnUse">
<stop offset="0.00120222" stop-color="#F8A301"/>
<stop offset="1" stop-color="#F8BF01"/>
</linearGradient>
<linearGradient id="paint12_linear_2339_3104" x1="291.787" y1="4.04613" x2="287.276" y2="11.4029" gradientUnits="userSpaceOnUse">
<stop offset="0.00120222" stop-color="#F8A301"/>
<stop offset="1" stop-color="#F8BF01"/>
</linearGradient>
<linearGradient id="paint13_linear_2339_3104" x1="272.801" y1="43.8544" x2="271.358" y2="49.6635" gradientUnits="userSpaceOnUse">
<stop offset="0.00120222" stop-color="#F8A301"/>
<stop offset="1" stop-color="#F8BF01"/>
</linearGradient>
<linearGradient id="paint14_linear_2339_3104" x1="235.379" y1="53.8877" x2="234.943" y2="57.8531" gradientUnits="userSpaceOnUse">
<stop offset="0.00120222" stop-color="#F8A301"/>
<stop offset="1" stop-color="#F8BF01"/>
</linearGradient>
<linearGradient id="paint15_linear_2339_3104" x1="238.254" y1="41.9026" x2="238.011" y2="44.8494" gradientUnits="userSpaceOnUse">
<stop offset="0.00120222" stop-color="#F8A301"/>
<stop offset="1" stop-color="#F8BF01"/>
</linearGradient>
<linearGradient id="paint16_linear_2339_3104" x1="279.038" y1="-0.253766" x2="274.471" y2="7.95181" gradientUnits="userSpaceOnUse">
<stop offset="0.00120222" stop-color="#F8A301"/>
<stop offset="1" stop-color="#F8BF01"/>
</linearGradient>
<linearGradient id="paint17_linear_2339_3104" x1="228.527" y1="21.919" x2="228.223" y2="25.2396" gradientUnits="userSpaceOnUse">
<stop offset="0.00120222" stop-color="#F8A301"/>
<stop offset="1" stop-color="#F8BF01"/>
</linearGradient>
<linearGradient id="paint18_linear_2339_3104" x1="217.319" y1="50.1229" x2="217.051" y2="53.3325" gradientUnits="userSpaceOnUse">
<stop offset="0.00120222" stop-color="#F8A301"/>
<stop offset="1" stop-color="#F8BF01"/>
</linearGradient>
<linearGradient id="paint19_linear_2339_3104" x1="219.296" y1="40.3808" x2="219.098" y2="43.0153" gradientUnits="userSpaceOnUse">
<stop offset="0.00120222" stop-color="#F8A301"/>
<stop offset="1" stop-color="#F8BF01"/>
</linearGradient>
<linearGradient id="paint20_linear_2339_3104" x1="244.06" y1="32.6064" x2="243.851" y2="35.4449" gradientUnits="userSpaceOnUse">
<stop offset="0.00120222" stop-color="#F8A301"/>
<stop offset="1" stop-color="#F8BF01"/>
</linearGradient>
<linearGradient id="paint21_linear_2339_3104" x1="253.96" y1="57.5651" x2="253.756" y2="60.0019" gradientUnits="userSpaceOnUse">
<stop offset="0.00120222" stop-color="#F8A301"/>
<stop offset="1" stop-color="#F8BF01"/>
</linearGradient>
<linearGradient id="paint22_linear_2339_3104" x1="273.701" y1="58.1232" x2="273.419" y2="60.9828" gradientUnits="userSpaceOnUse">
<stop offset="0.00120222" stop-color="#F8A301"/>
<stop offset="1" stop-color="#F8BF01"/>
</linearGradient>
<linearGradient id="paint23_linear_2339_3104" x1="276.163" y1="52.3446" x2="275.799" y2="55.6592" gradientUnits="userSpaceOnUse">
<stop offset="0.00120222" stop-color="#F8A301"/>
<stop offset="1" stop-color="#F8BF01"/>
</linearGradient>
<linearGradient id="paint24_linear_2339_3104" x1="264.607" y1="17.8379" x2="261.772" y2="26.4113" gradientUnits="userSpaceOnUse">
<stop offset="0.00120222" stop-color="#F8A301"/>
<stop offset="1" stop-color="#F8BF01"/>
</linearGradient>
<linearGradient id="paint25_linear_2339_3104" x1="263.012" y1="41.9321" x2="261.344" y2="47.0787" gradientUnits="userSpaceOnUse">
<stop offset="0.00120222" stop-color="#F8A301"/>
<stop offset="1" stop-color="#F8BF01"/>
</linearGradient>
<linearGradient id="paint26_linear_2339_3104" x1="257.719" y1="50.1398" x2="257.174" y2="54.1517" gradientUnits="userSpaceOnUse">
<stop offset="0.00120222" stop-color="#F8A301"/>
<stop offset="1" stop-color="#F8BF01"/>
</linearGradient>
</defs>
</svg>
