<svg width="639" height="832" viewBox="0 0 639 832" fill="none" xmlns="http://www.w3.org/2000/svg">
<g clip-path="url(#clip0_2559_1534)">
<g clip-path="url(#clip1_2559_1534)" filter="url(#filter0_d_2559_1534)">
<rect width="639" height="832" fill="#DDD9C6"/>
<path fill-rule="evenodd" clip-rule="evenodd" d="M512.703 738.73C488.913 728.154 469.05 709.095 458.327 685.487C448.312 663.438 454.169 638.883 456.443 614.869C458.682 591.234 457.933 566.577 471.437 547.063C485.828 526.268 508.668 513.741 532.501 504.964C559.299 495.095 588.783 483.624 615.513 494.004C642.444 504.462 658.604 532.007 670.079 558.389C680.427 582.181 679.343 608.186 676.339 633.855C673.439 658.631 668.587 683.439 653.148 703.03C637.215 723.249 614.717 737.494 589.644 743.868C564.165 750.344 536.802 749.444 512.703 738.73Z" fill="#305233"/>
<g filter="url(#filter1_d_2559_1534)">
<path fill-rule="evenodd" clip-rule="evenodd" d="M423.645 609.572C475.823 604.223 528.822 611.731 569.72 631.377C607.916 649.725 620.122 682.838 638.218 712.647C656.027 741.985 680.107 770.294 674.026 803.204C667.547 838.275 638.375 869.965 603.973 898.004C565.289 929.533 523.296 964.937 466.055 972.708C408.387 980.537 354.162 960.334 309.367 938.001C268.968 917.86 246.912 886.608 228.592 854.317C210.909 823.149 196.678 790.491 206.136 756.047C215.898 720.5 242.876 687.054 281.706 660.905C321.166 634.332 370.789 614.991 423.645 609.572Z" fill="#024B06"/>
</g>
<path fill-rule="evenodd" clip-rule="evenodd" d="M39.9248 533.378C79.4802 507.291 128.255 495.645 175.096 502.556C218.842 509.011 250.923 542.346 285.675 569.638C319.878 596.499 358.577 619.781 375.415 659.875C393.359 702.601 390.308 750.123 380.511 795.454C369.494 846.427 358.318 903.113 316.188 933.915C273.743 964.948 215.523 962.493 163.677 953.988C116.921 946.318 77.9378 918.884 41.3519 888.829C6.03842 859.82 -27.4145 827.781 -42.4801 784.635C-58.0278 740.108 -57.9563 691.41 -43.2451 646.555C-28.2955 600.973 -0.144909 559.805 39.9248 533.378Z" fill="#4A814F"/>
<path d="M164.762 552.205C162.757 552.024 161.036 554.542 160.557 558.455C159.758 564.662 161.622 566.61 165.789 563.88C168.529 562.095 167.703 552.455 164.762 552.205ZM163.401 562.071C162.746 561.876 162.34 561.09 162.482 560.266C162.519 560.151 163.263 555.264 165.09 555.563C165.877 555.682 166.023 555.921 165.95 557.093C165.763 560.253 165.412 561.673 163.401 562.071Z" fill="black"/>
<path d="M204.503 570.975C204.211 574.855 210.216 578.181 213.005 575.694C214.516 574.348 213.413 569.943 211.294 568.995C207.61 567.302 204.72 568.15 204.503 570.975ZM210.46 571.218C212.413 571.658 212.637 572.321 211.847 573.026C211.103 573.688 208.532 573.471 207.1 572.65C205.255 571.621 207.416 570.518 210.46 571.218Z" fill="black"/>
<path d="M172.521 547.151C173.374 549.964 179.735 551.115 180.248 548.604C180.817 545.714 179.672 542.832 177.922 542.665C173.037 542.172 171.425 543.526 172.521 547.151ZM175.314 545.031C178.148 544.683 178.908 545.402 178.867 546.63C178.848 547.304 177.799 547.582 175.975 547.235C175.036 547.045 173.538 546.82 173.562 545.976C173.546 545.127 174.31 545.146 175.314 545.031Z" fill="black"/>
<path d="M191.919 598.609C188.021 597.08 183.079 600.828 184.957 603.913C186.251 606.039 192.352 606.958 194.207 605.305C195.899 603.797 194.489 599.6 191.919 598.609ZM186.019 602.72C185.88 602.433 188.428 601.392 190.219 600.986C192.174 600.556 193.95 601.475 193.318 602.611C192.887 603.488 186.994 604.557 186.019 602.72Z" fill="black"/>
<path d="M194.359 578.261C191.134 577.775 187.737 587.399 189.888 590.932C191.327 593.296 196.652 591.009 197.641 587.587C198.6 584.232 196.624 578.578 194.359 578.261ZM191.485 588.566C190.749 588.239 192.625 582.633 193.83 581.56C195.127 580.404 196.513 582.036 196.131 584.343C195.714 586.887 193.09 589.267 191.485 588.566Z" fill="black"/>
<path d="M213.347 597.82C213.163 597.165 212.993 596.005 212.987 595.231C212.968 593.321 212.069 591.785 210.988 591.888C207.369 592.285 205.455 595.835 205.641 601.779C205.809 606.753 207.465 608.065 210.961 606.056C213.516 604.558 214.402 601.431 213.347 597.82ZM208.708 602.53C208.24 602.701 207.839 602.279 207.884 601.706L208.055 600.283C208.548 596.277 210.896 593.323 212.045 595.21C212.449 595.875 212.444 596.043 212.028 596.004C211.627 595.992 211.478 596.453 211.326 598.434C211.147 601.135 210.711 601.769 208.708 602.53Z" fill="black"/>
<path d="M177.609 583.022C177.311 581.657 176.815 580.958 175.951 580.708C172.011 579.611 165.384 585.841 167.027 589.066C169.609 594.065 178.861 588.758 177.609 583.022ZM169.572 587.288C169.677 586.583 171.733 584.996 173.563 584.263C176.199 583.219 176.978 583.504 175.891 585.165C174.887 586.671 169.407 588.536 169.572 587.288Z" fill="black"/>
<path d="M194.737 556.375C196.74 555.492 195.834 548.833 193.655 548.602C191.216 548.355 187.014 549.68 186.088 551.038C184.061 553.994 190.716 558.113 194.737 556.375ZM187.435 552.956C187.443 551.677 190.874 551.614 192.693 551.428C194.511 551.243 195.031 552.215 193.756 553.352C193.362 553.703 187.449 554.214 187.435 552.956Z" fill="black"/>
<path d="M182.768 562.517C180.217 560.853 174.454 562.667 174.069 565.266C173.516 568.999 177.618 571.742 182.289 570.779C184.823 570.243 185.175 564.063 182.768 562.517ZM178.507 567.915C175.292 567.334 175.932 565.329 178.153 564.866C181.205 564.239 183.844 565.578 182.452 567.228C181.914 567.872 180.429 568.253 178.507 567.915Z" fill="black"/>
<path d="M503.66 581.204C504.211 582.649 505.927 583.117 507.899 582.321C511.038 581.085 511.353 579.229 508.764 577.124C507.066 575.737 502.844 579.091 503.66 581.204ZM508.679 579.303C508.796 579.814 508.559 580.323 508.131 580.462C508.066 580.47 505.557 581.363 505.118 580.008C504.923 579.428 504.989 579.258 505.557 578.97C507.085 578.188 507.857 578.022 508.679 579.303Z" fill="white"/>
<path d="M500.542 548.552C502.443 547.634 502.087 542.494 500.042 541.271C498.934 540.609 497.231 542.65 497.461 544.399C497.842 547.452 499.156 549.218 500.542 548.552ZM498.763 544.337C498.348 542.851 498.586 542.503 499.165 542.849C499.711 543.175 500.426 545.027 500.498 546.261C500.604 547.842 499.403 546.657 498.763 544.337Z" fill="white"/>
<path d="M498.92 577.613C499.96 576.207 498.478 571.452 497.145 571.821C495.618 572.26 494.639 573.889 495.117 575.153C496.437 578.693 497.579 579.422 498.92 577.613ZM497.046 576.283C495.985 574.414 496.079 573.677 496.664 573.351C496.984 573.169 497.446 573.819 497.863 575.187C498.073 575.895 498.443 577.002 498.043 577.229C497.652 577.485 497.418 576.949 497.046 576.283Z" fill="white"/>
<path d="M517.372 548.633C517.896 551.78 521.205 554.13 522.044 551.937C522.623 550.425 521.118 545.925 519.762 545.114C518.524 544.374 517.019 546.564 517.372 548.633ZM521.153 551.544C521.064 551.723 519.772 550.254 519.016 549.128C518.197 547.895 518.062 546.397 518.79 546.508C519.335 546.555 521.699 550.337 521.153 551.544Z" fill="white"/>
<path d="M507.035 553.1C507.831 555.477 513.378 555.059 514.339 552.549C514.983 550.87 512.234 547.835 510.33 548.135C508.468 548.437 506.466 551.437 507.035 553.1ZM512.734 552.123C512.815 552.728 509.616 553.042 508.736 552.516C507.788 551.95 508.108 550.517 509.301 550.117C510.615 549.674 512.552 550.808 512.734 552.123Z" fill="white"/>
<path d="M510.462 534.266C510.215 534.583 509.73 535.035 509.372 535.262C508.49 535.826 508.061 536.893 508.451 537.614C509.781 540.011 512.038 540.315 514.743 538.473C517.002 536.922 517.088 535.394 515.047 533.547C513.541 532.206 511.807 532.493 510.462 534.266ZM514.121 536.128C514.348 536.403 514.279 536.803 513.998 536.937L513.283 537.229C511.264 538.042 509.147 537.264 509.661 535.923C509.842 535.45 509.921 535.405 510.035 535.705C510.156 535.987 510.418 535.957 511.387 535.492C512.7 534.837 513.133 534.957 514.121 536.128Z" fill="white"/>
<path d="M514.286 563.12C513.748 563.717 513.581 564.26 513.737 564.928C514.472 567.961 519.448 570.746 520.424 568.688C521.926 565.473 516.548 560.612 514.286 563.12ZM518.797 567.442C518.438 567.572 517.054 566.608 516.137 565.556C514.822 564.036 514.708 563.418 515.821 563.691C516.835 563.952 519.428 567.198 518.797 567.442Z" fill="white"/>
<path d="M496.431 559.605C495.386 558.469 492.575 561.019 493.158 562.599C493.816 564.364 495.764 566.899 496.689 567.15C498.707 567.705 498.513 561.896 496.431 559.605ZM497.155 565.662C496.557 566.025 495.44 563.661 494.778 562.452C494.115 561.242 494.403 560.6 495.336 561.158C495.624 561.33 497.735 565.289 497.155 565.662Z" fill="white"/>
<path d="M503.034 565.806C503.068 568.057 505.737 571.535 507.068 571.053C508.98 570.36 508.956 566.721 507.028 563.755C505.976 562.15 502.99 563.688 503.034 565.806ZM506.894 567.208C507.643 569.607 506.507 569.741 505.588 568.332C504.33 566.395 504.116 564.176 505.325 564.666C505.795 564.854 506.442 565.775 506.894 567.208Z" fill="white"/>
</g>
</g>
<defs>
<filter id="filter0_d_2559_1534" x="-4" y="0" width="647" height="840" filterUnits="userSpaceOnUse" color-interpolation-filters="sRGB">
<feFlood flood-opacity="0" result="BackgroundImageFix"/>
<feColorMatrix in="SourceAlpha" type="matrix" values="0 0 0 0 0 0 0 0 0 0 0 0 0 0 0 0 0 0 127 0" result="hardAlpha"/>
<feOffset dy="4"/>
<feGaussianBlur stdDeviation="2"/>
<feComposite in2="hardAlpha" operator="out"/>
<feColorMatrix type="matrix" values="0 0 0 0 0 0 0 0 0 0 0 0 0 0 0 0 0 0 0.25 0"/>
<feBlend mode="normal" in2="BackgroundImageFix" result="effect1_dropShadow_2559_1534"/>
<feBlend mode="normal" in="SourceGraphic" in2="effect1_dropShadow_2559_1534" result="shape"/>
</filter>
<filter id="filter1_d_2559_1534" x="175.464" y="585.775" width="527.177" height="421.836" filterUnits="userSpaceOnUse" color-interpolation-filters="sRGB">
<feFlood flood-opacity="0" result="BackgroundImageFix"/>
<feColorMatrix in="SourceAlpha" type="matrix" values="0 0 0 0 0 0 0 0 0 0 0 0 0 0 0 0 0 0 127 0" result="hardAlpha"/>
<feOffset dy="5.53083"/>
<feGaussianBlur stdDeviation="13.8271"/>
<feComposite in2="hardAlpha" operator="out"/>
<feColorMatrix type="matrix" values="0 0 0 0 0 0 0 0 0 0 0 0 0 0 0 0 0 0 0.25 0"/>
<feBlend mode="normal" in2="BackgroundImageFix" result="effect1_dropShadow_2559_1534"/>
<feBlend mode="normal" in="SourceGraphic" in2="effect1_dropShadow_2559_1534" result="shape"/>
</filter>
<clipPath id="clip0_2559_1534">
<rect width="639" height="832" fill="white"/>
</clipPath>
<clipPath id="clip1_2559_1534">
<rect width="639" height="832" fill="white"/>
</clipPath>
</defs>
</svg>
