<svg width="137" height="42" viewBox="0 0 137 42" fill="none" xmlns="http://www.w3.org/2000/svg">
<g filter="url(#filter0_d_2108_10298)">
<path fill-rule="evenodd" clip-rule="evenodd" d="M41.0031 30.5511C20.4929 30.9848 20.3688 30.865 19.7527 29.9747C19.4204 29.4945 16.4405 28.8752 13.1306 28.5984C9.16636 28.267 6.77895 27.7098 6.13459 26.9657C5.59661 26.3444 4.89624 25.8361 4.57821 25.8361C4.26019 25.8361 4 25.1422 4 24.294C4 23.0649 4.40282 22.752 5.98529 22.752C7.07718 22.752 7.97055 22.405 7.97055 21.9809C7.97055 21.5569 7.44281 21.2099 6.79779 21.2099C5.10248 21.2099 4.6129 19.6852 6.27332 19.5765C7.04065 19.5263 7.87237 19.5263 8.12161 19.5765C8.37085 19.6268 8.57478 19.3209 8.57478 18.8968C8.57478 18.4727 7.89503 18.1258 7.06424 18.1258C6.23345 18.1258 5.5537 17.7788 5.5537 17.3547C5.5537 16.9307 5.84052 16.5837 6.19106 16.5837C6.52746 16.5837 7.98076 15.8992 9.47637 15.041C8.72288 14.8923 8.26958 14.6965 8.26958 14.4829C8.26958 14.0588 9.28918 13.7071 10.5354 13.7013C11.218 13.6981 12.0366 13.6226 12.774 13.5063C13.616 13.209 14.54 12.9424 15.5746 12.7027L15.8222 12.6144L14.0096 12.0978C12.9725 11.8022 13.8427 11.5779 16.4839 11.451C17.1141 11.3782 17.3722 10.9625 17.1784 10.3181C17.1445 10.2053 17.1272 10.0948 17.1258 9.98775C13.7295 10.091 10.4266 10.2984 8.8738 10.5871C5.61885 11.1922 4.69104 11.082 5.40203 10.1748C6.00964 9.39937 10.2974 8.19495 12.1504 8.27916C13.1218 8.3233 14.1155 7.94863 14.3587 7.44655C14.6019 6.94447 15.7024 6.5664 16.8043 6.60637C17.076 6.61623 17.3525 6.6081 17.6201 6.58496C17.2269 6.07952 17.5418 5.87095 18.7397 5.17448C18.9696 5.04079 19.189 4.88306 19.3885 4.71262C18.3205 4.69875 16.8794 4.71893 15.218 4.77775C5.73143 5.11362 8.85501 3.97987 19.2987 3.2966C19.6638 3.27271 20.0291 3.24799 20.3924 3.22263C20.3943 3.2013 20.3952 3.18036 20.3952 3.15983C20.3952 2.5812 21.2662 1.88549 22.3307 1.61382C23.9851 1.19156 24.0947 1.03435 23.0859 0.530736C22.4368 0.206716 30.1986 -0.0306655 40.3343 0.00322135C50.47 0.0370986 57.5393 0.307574 56.0438 0.604256C53.721 1.0651 53.5889 1.17846 55.1375 1.38243C55.7222 1.45945 59.471 1.55784 64.7842 1.64726C70.0975 1.55784 73.8463 1.45945 74.431 1.38243C75.9796 1.17846 75.8475 1.0651 73.5247 0.604256C72.0292 0.307574 79.0985 0.0370986 89.2342 0.00322135C99.3699 -0.0306655 107.132 0.206716 106.483 0.530736C105.474 1.03435 105.583 1.19156 107.238 1.61382C108.302 1.88549 109.173 2.5812 109.173 3.15983C109.173 3.18036 109.174 3.2013 109.176 3.22263C109.539 3.24799 109.905 3.27271 110.27 3.2966C120.713 3.97987 123.837 5.11362 114.35 4.77775C112.689 4.71893 111.248 4.69875 110.18 4.71262C110.38 4.88306 110.599 5.04079 110.829 5.17448C112.027 5.87095 112.342 6.07952 111.948 6.58496C112.216 6.6081 112.492 6.61623 112.764 6.60637C113.866 6.5664 114.967 6.94447 115.21 7.44655C115.453 7.94863 116.447 8.3233 117.418 8.27916C118.689 8.22139 121.106 8.76997 122.695 9.37049C122.902 9.43194 123.062 9.49675 123.175 9.56508C123.662 9.77719 124.02 9.98837 124.166 10.1748C124.202 10.2201 124.233 10.2634 124.261 10.3048C124.731 10.4922 125.292 10.6105 125.811 10.6105C127.276 10.6105 127.52 10.8708 127.257 12.1526C127.016 13.3284 127.239 13.6947 128.194 13.6947C128.882 13.6947 129.267 13.923 129.049 14.202C128.986 14.2823 128.952 14.3985 128.946 14.5374C131.327 14.7452 132.88 15.0238 132.733 15.3384C132.568 15.6904 131.226 16.21 129.688 16.5284C129.702 16.6696 129.641 16.7334 129.498 16.6877C128.977 16.5206 127.42 17.3584 126.444 18.1576C126.407 18.4683 126.09 18.8642 125.621 19.2275C125.654 19.5403 126.116 19.6176 126.677 19.3951C127.469 19.0807 127.431 19.2146 126.526 19.9292C126.326 20.0867 126.118 20.2775 125.917 20.4828C126.552 20.4548 127.338 20.4084 128.288 20.3453C131.443 20.1356 133.399 20.1584 132.634 20.396C131.604 20.7162 131.41 21.074 131.883 21.7795C132.373 22.5104 131.721 22.9403 129.07 23.6336C125.34 24.609 122.975 25.6615 122.654 26.4292C123.326 26.7142 123.807 27.112 123.807 27.4854C123.807 27.5548 123.602 27.6172 123.23 27.6708C123.191 28.6037 121.228 29.6762 118.277 30.2176C116.374 30.5667 115.226 30.9005 115.725 30.9592C116.468 31.0466 116.448 31.2089 115.61 31.8542C115.047 32.2877 112.942 32.5 110.932 32.326C108.75 32.137 107.282 32.3127 107.287 32.7622C107.298 33.696 97.6009 33.8961 89.767 33.1239C78.3357 31.9973 75.4828 31.8547 77.3718 32.5046C78.8694 33.0199 78.568 33.1277 75.6716 33.113C73.7353 33.103 72.0285 32.8502 71.8785 32.5511C71.7486 32.2918 71.2028 32.0745 70.1982 31.8963C68.7875 32.1562 67.8611 32.3993 67.7273 32.57C67.5547 32.7902 66.7337 32.9706 65.9029 32.9706C64.0011 32.9706 64.501 32.2588 66.7718 31.7333C66.9858 31.6838 67.1951 31.6312 67.3919 31.5779C64.3801 31.3526 59.777 31.2477 53.3303 31.2453C46.1376 31.2426 42.2005 31.0235 41.0031 30.5511ZM121.109 14.1739C122.925 14.2032 124.727 14.2663 126.352 14.3564C126.443 13.7798 126.183 13.3441 125.77 13.3863C125.355 13.4287 123.452 13.526 121.541 13.6024C120.707 13.6358 120.081 13.6753 119.637 13.7321C120.297 13.7976 120.837 13.9622 121.109 14.1739ZM15.5202 7.97457C15.5202 7.78757 15.7921 7.42012 16.1244 7.15804C16.4568 6.89595 16.7286 7.04896 16.7286 7.49805C16.7286 7.94714 16.4568 8.31458 16.1244 8.31458C15.7921 8.31458 15.5202 8.16158 15.5202 7.97457ZM104.038 1.37529C103.832 0.951221 103.952 0.604256 104.304 0.604256C104.656 0.604256 104.944 0.951221 104.944 1.37529C104.944 1.79936 104.824 2.14632 104.677 2.14632C104.531 2.14632 104.243 1.79936 104.038 1.37529ZM86.6664 0.800819C89.7403 0.660876 94.7704 0.660876 97.8443 0.800819C100.918 0.940761 98.4032 1.05525 92.2553 1.05525C86.1075 1.05525 83.5924 0.940749 86.6664 0.800819ZM114.048 7.97457C114.048 7.78757 113.776 7.42012 113.444 7.15804C113.112 6.89595 112.84 7.04896 112.84 7.49805C112.84 7.94714 113.112 8.31458 113.444 8.31458C113.776 8.31458 114.048 8.16158 114.048 7.97457ZM25.531 1.37529C25.7364 0.951221 25.6165 0.604256 25.2645 0.604256C24.9126 0.604256 24.6246 0.951221 24.6246 1.37529C24.6246 1.79936 24.7445 2.14632 24.8911 2.14632C25.0376 2.14632 25.3256 1.79936 25.531 1.37529ZM42.9021 0.800819C39.8282 0.660876 34.7981 0.660876 31.7242 0.800819C28.6502 0.940761 31.1653 1.05525 37.3131 1.05525C43.461 1.05525 45.976 0.940749 42.9021 0.800819ZM25.0396 29.1471C24.2919 28.9633 23.0683 28.9633 22.3206 29.1471C21.5729 29.3309 22.1847 29.4812 23.6801 29.4812C25.1755 29.4812 25.7873 29.3309 25.0396 29.1471Z" fill="#FFC700"/>
</g>
<defs>
<filter id="filter0_d_2108_10298" x="0" y="0" width="136.801" height="41.6016" filterUnits="userSpaceOnUse" color-interpolation-filters="sRGB">
<feFlood flood-opacity="0" result="BackgroundImageFix"/>
<feColorMatrix in="SourceAlpha" type="matrix" values="0 0 0 0 0 0 0 0 0 0 0 0 0 0 0 0 0 0 127 0" result="hardAlpha"/>
<feOffset dy="4"/>
<feGaussianBlur stdDeviation="2"/>
<feComposite in2="hardAlpha" operator="out"/>
<feColorMatrix type="matrix" values="0 0 0 0 0 0 0 0 0 0 0 0 0 0 0 0 0 0 0.25 0"/>
<feBlend mode="normal" in2="BackgroundImageFix" result="effect1_dropShadow_2108_10298"/>
<feBlend mode="normal" in="SourceGraphic" in2="effect1_dropShadow_2108_10298" result="shape"/>
</filter>
</defs>
</svg>
