<svg width="300" height="70" viewBox="0 0 300 70" fill="none" xmlns="http://www.w3.org/2000/svg">
<path fill-rule="evenodd" clip-rule="evenodd" d="M86.1874 63.6481C38.4151 64.5517 38.1261 64.302 36.6911 62.4473C35.9171 61.4468 28.9762 60.1566 21.267 59.5801C12.0335 58.8896 6.4727 57.7289 4.97187 56.1786C3.71882 54.8842 2.0875 53.8252 1.34676 53.8252C0.606025 53.8252 0 52.3795 0 50.6126C0 48.0518 0.938238 47.3999 4.62412 47.3999C7.16734 47.3999 9.24818 46.6771 9.24818 45.7936C9.24818 44.9102 8.01897 44.1873 6.5166 44.1873C2.5679 44.1873 1.42756 41.0108 5.29499 40.7845C7.08225 40.6799 9.0195 40.6799 9.60002 40.7845C10.1805 40.8891 10.6555 40.2518 10.6555 39.3684C10.6555 38.4849 9.07228 37.762 7.1372 37.762C5.20212 37.762 3.61886 37.0392 3.61886 36.1557C3.61886 35.2723 4.28693 34.5494 5.1034 34.5494C5.88695 34.5494 9.27194 33.1232 12.7555 31.3354C11.0005 31.0256 9.94466 30.6177 9.94466 30.1726C9.94466 29.2891 12.3195 28.5564 15.2221 28.5444C16.8122 28.5378 18.7189 28.3804 20.4363 28.1381C22.3974 27.5188 24.5496 26.9633 26.9595 26.4639L27.5363 26.2801L23.3143 25.2038C20.8988 24.588 22.9256 24.1207 29.0775 23.8562C30.5452 23.7047 31.1464 22.8385 30.6951 21.4961C30.6161 21.261 30.5758 21.0308 30.5726 20.8078C22.662 21.0228 14.9688 21.4549 11.352 22.0564C3.77061 23.3171 1.60957 23.0876 3.2656 21.1974C4.68084 19.582 14.668 17.0728 18.9839 17.2482C21.2464 17.3402 23.561 16.5596 24.1274 15.5136C24.6938 14.4676 27.2571 13.68 29.8236 13.7633C30.4565 13.7838 31.1006 13.7669 31.7239 13.7187C30.8079 12.6657 31.5415 12.2311 34.3315 10.7802C34.8671 10.5016 35.3781 10.173 35.8427 9.81796C33.3551 9.78905 29.9985 9.8311 26.1289 9.95365C4.03283 10.6534 11.3083 8.29139 35.6337 6.86792C36.4841 6.81815 37.3348 6.76665 38.1812 6.7138C38.1855 6.66938 38.1877 6.62575 38.1877 6.58299C38.1877 5.3775 40.2163 3.92811 42.6956 3.36212C46.5492 2.48242 46.8045 2.1549 44.4548 1.1057C42.9429 0.430659 61.0215 -0.0638865 84.6295 0.00671114C108.237 0.0772887 124.703 0.64078 121.22 1.25887C115.81 2.21896 115.502 2.45513 119.109 2.88007C120.471 3.04052 129.203 3.24551 141.578 3.4318C153.954 3.24551 162.685 3.04052 164.047 2.88007C167.654 2.45513 167.347 2.21896 161.936 1.25887C158.453 0.64078 174.919 0.0772887 198.527 0.00671114C222.135 -0.0638865 240.213 0.430659 238.702 1.1057C236.352 2.1549 236.607 2.48242 240.461 3.36212C242.94 3.92811 244.969 5.3775 244.969 6.58299C244.969 6.62575 244.971 6.66938 244.975 6.7138C245.822 6.76665 246.672 6.81815 247.523 6.86792C271.848 8.29139 279.124 10.6534 257.027 9.95365C253.158 9.8311 249.801 9.78905 247.314 9.81797C247.778 10.173 248.289 10.5016 248.825 10.7802C251.615 12.2311 252.348 12.6657 251.432 13.7187C252.056 13.7669 252.7 13.7838 253.333 13.7633C255.899 13.68 258.463 14.4676 259.029 15.5136C259.595 16.5596 261.91 17.3402 264.172 17.2482C267.133 17.1279 272.762 18.2708 276.462 19.5219C276.946 19.6499 277.319 19.7849 277.582 19.9273C278.715 20.3691 279.551 20.8091 279.891 21.1974C279.974 21.2919 280.047 21.3822 280.11 21.4684C281.205 21.8588 282.512 22.1053 283.721 22.1053C287.133 22.1053 287.701 22.6476 287.089 25.3179C286.528 27.7676 287.046 28.5305 289.271 28.5305C290.875 28.5305 291.771 29.0062 291.262 29.5875C291.116 29.7547 291.038 29.9969 291.022 30.2863C296.569 30.7191 300.186 31.2995 299.843 31.9551C299.46 32.6884 296.334 33.7708 292.753 34.4341C292.785 34.7283 292.641 34.8612 292.309 34.7661C291.094 34.4179 287.468 36.1633 285.197 37.8283C285.109 38.4757 284.371 39.3003 283.279 40.0572C283.355 40.7089 284.432 40.87 285.738 40.4064C287.583 39.7514 287.495 40.0303 285.386 41.5191C284.921 41.8473 284.436 42.2448 283.968 42.6725C285.448 42.6142 287.278 42.5175 289.491 42.386C296.839 41.9491 301.395 41.9966 299.614 42.4916C297.214 43.1588 296.762 43.9041 297.864 45.3739C299.006 46.8967 297.487 47.7923 291.313 49.2366C282.625 51.2688 277.117 53.4614 276.368 55.0607C277.933 55.6545 279.053 56.4834 279.053 57.2613C279.053 57.4057 278.575 57.5358 277.71 57.6475C277.619 59.5911 273.046 61.8253 266.172 62.9534C261.741 63.6807 259.067 64.376 260.23 64.4982C261.961 64.6804 261.912 65.0185 259.961 66.363C258.65 67.2661 253.747 67.7083 249.066 67.3458C243.984 66.952 240.563 67.3182 240.575 68.2546C240.601 70.1999 218.015 70.6168 199.768 69.0082C173.142 66.6609 166.497 66.3639 170.897 67.718C174.385 68.7914 173.683 69.016 166.937 68.9853C162.427 68.9647 158.451 68.438 158.102 67.8149C157.799 67.2745 156.528 66.8218 154.188 66.4506C150.902 66.9921 148.745 67.4985 148.433 67.8541C148.031 68.3129 146.119 68.6888 144.184 68.6888C139.754 68.6888 140.918 67.2058 146.208 66.1111C146.706 66.0079 147.193 65.8982 147.652 65.7873C140.637 65.318 129.915 65.0993 114.9 65.0943C98.1466 65.0887 88.9764 64.6323 86.1874 63.6481ZM272.77 29.5289C276.999 29.5901 281.197 29.7214 284.981 29.9092C285.194 28.708 284.588 27.8003 283.627 27.8881C282.659 27.9764 278.226 28.1792 273.776 28.3383C271.834 28.4078 270.376 28.4903 269.341 28.6085C270.877 28.7451 272.136 29.0879 272.77 29.5289ZM26.8327 16.6137C26.8327 16.2241 27.4661 15.4586 28.2402 14.9126C29.0142 14.3666 29.6475 14.6853 29.6475 15.6209C29.6475 16.5565 29.0142 17.3221 28.2402 17.3221C27.4661 17.3221 26.8327 17.0033 26.8327 16.6137ZM233.007 2.86518C232.528 1.98171 232.807 1.25887 233.627 1.25887C234.447 1.25887 235.118 1.98171 235.118 2.86518C235.118 3.74866 234.838 4.4715 234.497 4.4715C234.156 4.4715 233.485 3.74866 233.007 2.86518ZM192.546 1.66837C199.706 1.37683 211.422 1.37683 218.581 1.66837C225.741 1.95992 219.883 2.19843 205.564 2.19843C191.244 2.19843 185.386 1.95989 192.546 1.66837ZM256.324 16.6137C256.324 16.2241 255.69 15.4586 254.916 14.9126C254.142 14.3666 253.509 14.6853 253.509 15.6209C253.509 16.5565 254.142 17.3221 254.916 17.3221C255.69 17.3221 256.324 17.0033 256.324 16.6137ZM50.1498 2.86518C50.6282 1.98171 50.349 1.25887 49.5292 1.25887C48.7094 1.25887 48.0388 1.98171 48.0388 2.86518C48.0388 3.74866 48.318 4.4715 48.6594 4.4715C49.0007 4.4715 49.6714 3.74866 50.1498 2.86518ZM90.6105 1.66837C83.4507 1.37683 71.7347 1.37683 64.5749 1.66837C57.4151 1.95992 63.2731 2.19843 77.5927 2.19843C91.9123 2.19843 97.7703 1.95989 90.6105 1.66837ZM49.0052 60.7231C47.2637 60.3402 44.4138 60.3402 42.6722 60.7231C40.9307 61.106 42.3556 61.4192 45.8387 61.4192C49.3219 61.4192 50.7468 61.106 49.0052 60.7231Z" fill="#FFCF25"/>
</svg>
