<svg width="203" height="49" viewBox="0 0 203 49" fill="none" xmlns="http://www.w3.org/2000/svg">
<path fill-rule="evenodd" clip-rule="evenodd" d="M58.3201 44.2001C25.9942 44.8275 25.7987 44.6542 24.8277 43.3662C24.3039 42.6714 19.6072 41.7754 14.3907 41.3751C8.14264 40.8956 4.37986 40.0895 3.3643 39.0129C2.5164 38.1141 1.41254 37.3786 0.911311 37.3786C0.410077 37.3786 0 36.3747 0 35.1476C0 33.3693 0.634874 32.9166 3.12899 32.9166C4.8499 32.9166 6.25793 32.4147 6.25793 31.8011C6.25793 31.1876 5.42617 30.6856 4.40957 30.6856C1.73761 30.6856 0.965981 28.4798 3.58294 28.3225C4.79232 28.2499 6.10319 28.2499 6.49601 28.3225C6.88883 28.3952 7.21025 27.9527 7.21025 27.3391C7.21025 26.7256 6.13891 26.2236 4.82951 26.2236C3.5201 26.2236 2.44876 25.7217 2.44876 25.1081C2.44876 24.4946 2.90082 23.9926 3.4533 23.9926C3.9835 23.9926 6.27402 23.0023 8.63124 21.7607C7.44368 21.5456 6.72922 21.2623 6.72922 20.9532C6.72922 20.3397 8.33621 19.8308 10.3003 19.8225C11.3762 19.8179 12.6665 19.7086 13.8286 19.5403C15.1556 19.1103 16.6119 18.7245 18.2426 18.3777L18.6329 18.2501L15.776 17.5026C14.1415 17.075 15.513 16.7505 19.6757 16.5668C20.6689 16.4616 21.0757 15.8601 20.7704 14.9279C20.7169 14.7646 20.6896 14.6047 20.6874 14.4499C15.3346 14.5992 10.1289 14.8993 7.68154 15.3169C2.55144 16.1925 1.08914 16.033 2.20972 14.7204C3.16737 13.5986 9.92532 11.8561 12.8458 11.9779C14.3768 12.0418 15.9429 11.4997 16.3262 10.7734C16.7094 10.047 18.444 9.49999 20.1806 9.55783C20.6089 9.57209 21.0448 9.56032 21.4665 9.52685C20.8467 8.7956 21.3431 8.49385 23.231 7.48622C23.5934 7.29281 23.9392 7.06461 24.2536 6.81803C22.5703 6.79795 20.299 6.82715 17.6806 6.91225C2.72888 7.39818 7.65193 5.75791 24.1121 4.76939C24.6876 4.73483 25.2632 4.69907 25.8359 4.66236C25.8388 4.63152 25.8403 4.60122 25.8403 4.57152C25.8403 3.73437 27.213 2.72785 28.8907 2.33481C31.4983 1.72391 31.6711 1.49646 30.0811 0.767847C29.0581 0.299069 41.2912 -0.0443656 57.266 0.00466052C73.2407 0.0536727 84.3825 0.444986 82.0256 0.874212C78.3646 1.54094 78.1565 1.70495 80.5972 2.00005C81.5187 2.11147 87.4272 2.25382 95.8013 2.38319C104.175 2.25382 110.084 2.11147 111.005 2.00005C113.446 1.70495 113.238 1.54094 109.577 0.874212C107.22 0.444986 118.362 0.0536727 134.337 0.00466052C150.311 -0.0443656 162.544 0.299069 161.521 0.767847C159.931 1.49646 160.104 1.72391 162.712 2.33481C164.389 2.72785 165.762 3.73437 165.762 4.57152C165.762 4.60122 165.764 4.63151 165.767 4.66236C166.339 4.69907 166.915 4.73483 167.49 4.76939C183.951 5.75791 188.874 7.39818 173.922 6.91225C171.304 6.82715 169.032 6.79795 167.349 6.81803C167.663 7.06461 168.009 7.29281 168.371 7.48622C170.259 8.49385 170.756 8.7956 170.136 9.52685C170.558 9.56032 170.994 9.57209 171.422 9.55783C173.159 9.49999 174.893 10.047 175.276 10.7734C175.66 11.4997 177.226 12.0418 178.757 11.9779C180.76 11.8944 184.569 12.688 187.073 13.5568C187.4 13.6457 187.652 13.7395 187.831 13.8384C188.597 14.1452 189.163 14.4508 189.393 14.7204C189.449 14.786 189.498 14.8487 189.541 14.9086C190.282 15.1797 191.167 15.3509 191.984 15.3509C194.294 15.3509 194.678 15.7275 194.264 17.5819C193.884 19.283 194.235 19.8129 195.74 19.8129C196.826 19.8129 197.432 20.1432 197.087 20.5469C196.988 20.663 196.935 20.8311 196.925 21.0322C200.678 21.3327 203.126 21.7358 202.894 22.191C202.634 22.7003 200.519 23.4519 198.096 23.9126C198.118 24.1169 198.02 24.2092 197.796 24.1432C196.974 23.9013 194.52 25.1134 192.983 26.2697C192.924 26.7192 192.424 27.2919 191.686 27.8175C191.737 28.2701 192.466 28.3819 193.349 28.06C194.598 27.6051 194.538 27.7988 193.111 28.8327C192.797 29.0606 192.468 29.3367 192.151 29.6337C193.153 29.5932 194.391 29.526 195.889 29.4347C200.861 29.1313 203.944 29.1643 202.739 29.5081C201.115 29.9714 200.809 30.489 201.555 31.5097C202.328 32.5671 201.3 33.1891 197.122 34.1921C191.243 35.6033 187.516 37.126 187.009 38.2366C188.068 38.649 188.826 39.2246 188.826 39.7648C188.826 39.8651 188.503 39.9554 187.917 40.033C187.856 41.3827 184.761 42.9343 180.11 43.7177C177.112 44.2227 175.302 44.7056 176.089 44.7904C177.26 44.917 177.227 45.1518 175.907 46.0854C175.02 46.7126 171.702 47.0196 168.534 46.7679C165.096 46.4945 162.781 46.7488 162.789 47.399C162.807 48.7499 147.523 49.0395 135.176 47.9224C117.16 46.2923 112.663 46.0861 115.64 47.0264C118.001 47.7718 117.526 47.9278 112.961 47.9065C109.909 47.8921 107.219 47.5264 106.982 47.0937C106.778 46.7184 105.917 46.4041 104.334 46.1462C102.111 46.5223 100.651 46.874 100.44 47.1209C100.168 47.4395 98.8738 47.7006 97.5644 47.7006C94.5669 47.7006 95.3548 46.6707 98.9339 45.9105C99.2711 45.8388 99.6009 45.7627 99.9111 45.6856C95.1643 45.3597 87.9094 45.2079 77.7489 45.2044C66.4125 45.2005 60.2074 44.8835 58.3201 44.2001ZM184.574 20.5062C187.436 20.5487 190.277 20.6399 192.837 20.7703C192.981 19.9361 192.571 19.3057 191.921 19.3667C191.266 19.4281 188.266 19.5689 185.255 19.6794C183.941 19.7277 182.955 19.7849 182.254 19.867C183.293 19.9619 184.146 20.1999 184.574 20.5062ZM18.1568 11.5373C18.1568 11.2667 18.5854 10.7351 19.1092 10.356C19.6329 9.97677 20.0615 10.1981 20.0615 10.8479C20.0615 11.4976 19.6329 12.0292 19.1092 12.0292C18.5854 12.0292 18.1568 11.8078 18.1568 11.5373ZM157.668 1.98971C157.344 1.37619 157.533 0.874212 158.088 0.874212C158.642 0.874212 159.096 1.37619 159.096 1.98971C159.096 2.60324 158.907 3.10521 158.676 3.10521C158.445 3.10521 157.992 2.60324 157.668 1.98971ZM130.289 1.15859C135.134 0.956129 143.062 0.956129 147.907 1.15859C152.752 1.36106 148.788 1.52669 139.098 1.52669C129.409 1.52669 125.445 1.36104 130.289 1.15859ZM173.446 11.5373C173.446 11.2667 173.017 10.7351 172.493 10.356C171.97 9.97677 171.541 10.1981 171.541 10.8479C171.541 11.4976 171.97 12.0292 172.493 12.0292C173.017 12.0292 173.446 11.8078 173.446 11.5373ZM33.9347 1.98971C34.2584 1.37619 34.0695 0.874212 33.5147 0.874212C32.9601 0.874212 32.5062 1.37619 32.5062 1.98971C32.5062 2.60324 32.6952 3.10521 32.9262 3.10521C33.1571 3.10521 33.611 2.60324 33.9347 1.98971ZM61.3131 1.15859C56.4683 0.956129 48.5405 0.956129 43.6957 1.15859C38.8509 1.36106 42.8148 1.52669 52.5044 1.52669C62.194 1.52669 66.1579 1.36104 61.3131 1.15859ZM33.1602 42.1688C31.9818 41.9029 30.0533 41.9029 28.8749 42.1688C27.6964 42.4347 28.6606 42.6522 31.0175 42.6522C33.3745 42.6522 34.3387 42.4347 33.1602 42.1688Z" fill="#FFCF25"/>
</svg>
