<svg width="45" height="51" viewBox="0 0 45 51" fill="none" xmlns="http://www.w3.org/2000/svg">
<path d="M18.6536 3.47795C19.7579 -0.391755 25.2421 -0.391754 26.3464 3.47795L28.2172 10.0331C28.8096 12.1089 30.9422 13.3402 33.0362 12.8153L39.6484 11.1579C43.5519 10.1794 46.2939 14.9288 43.4949 17.8201L38.7533 22.7178C37.2518 24.2687 37.2518 26.7313 38.7533 28.2822L43.4949 33.1799C46.294 36.0712 43.5519 40.8206 39.6484 39.8421L33.0362 38.1847C30.9422 37.6598 28.8096 38.8911 28.2172 40.9669L26.3464 47.522C25.2421 51.3918 19.7579 51.3918 18.6536 47.522L16.7828 40.9669C16.1904 38.8911 14.0578 37.6598 11.9638 38.1847L5.35156 39.8421C1.44811 40.8206 -1.29395 36.0712 1.50513 33.1799L6.24666 28.2822C7.74817 26.7313 7.74817 24.2687 6.24666 22.7178L1.50513 17.8201C-1.29395 14.9288 1.44811 10.1794 5.35156 11.1579L11.9638 12.8153C14.0578 13.3402 16.1904 12.1089 16.7828 10.0331L18.6536 3.47795Z" fill="#DDAB23"/>
</svg>
