<svg width="30" height="24" viewBox="0 0 30 24" fill="none" xmlns="http://www.w3.org/2000/svg">
<path d="M20.3349 11.7977C19.364 11.5112 14.398 9.93537 14.0319 9.79212C13.8568 9.72845 13.7295 9.41011 13.6658 8.86893C13.1406 4.82602 12.3127 0.671594 11.9466 0.210002C11.6761 -0.140172 10.7529 -0.0287528 10.4982 0.369172C10.2435 0.767096 9.06567 4.79419 8.36532 7.72291L7.90389 9.63295C-1.13702 12.498 -1.63048 12.4343 2.46019 13.6918L6.07343 14.806C8.12673 15.4426 8.17432 15.4584 8.28574 15.9677C8.44491 16.6999 9.47951 20.2655 9.87743 21.9686C10.721 25.6295 12.4402 23.3693 13.9523 16.5568L14.3025 14.997C14.4935 14.9651 15.703 14.8537 20.9238 13.7236C22.1176 13.453 21.7674 12.2115 20.3349 11.7977ZM18.0747 12.5776C17.9473 12.689 14.4615 13.5326 13.7771 13.5326C12.9494 13.5326 12.7584 13.9305 11.8193 17.671C11.1985 20.1382 11.151 20.1857 10.8008 18.7532C10.371 16.9546 9.49543 14.8537 9.38401 14.3603C9.2885 13.9146 8.39716 13.5963 4.94317 12.7686C3.2083 12.3548 2.93771 12.2115 3.59023 12.0205C4.40199 11.7817 8.30165 10.5084 8.74733 10.5084C9.17709 10.5084 9.54318 10.19 9.67051 9.71254L10.912 4.87377C11.1349 4.03017 11.135 4.03017 11.7558 7.32499C12.4721 11.0336 12.3923 10.8743 13.5383 11.1131C14.9709 11.4155 18.2179 12.4503 18.0747 12.5776Z" fill="#DDAB23"/>
<path d="M24.1445 5.6676C28.3466 2.14993 29.9542 0.36721 29.1902 0.0807046C28.7922 -0.0625483 28.6171 -0.0307298 27.9168 0.303527C26.5639 0.97204 21.6455 5.17417 21.6455 5.6676C21.6455 6.35203 23.3009 6.36794 24.1445 5.6676Z" fill="#DDAB23"/>
<path d="M8.07916 6.60857C8.76707 6.25839 8.72538 6.19473 6.05711 3.98227C4.6396 2.78841 3.47232 2.04032 2.61764 1.75381C1.45027 1.35589 0.887416 1.8971 1.34602 2.34277C5.26497 6.19473 6.89094 7.21341 8.07916 6.60857Z" fill="#DDAB23"/>
<path d="M19.8779 16.8123C19.8779 17.1624 25.3812 21.4123 26.1525 21.651C27.7785 22.1604 28.1954 21.4917 26.903 20.4253C23.4217 17.5125 19.8779 15.6981 19.8779 16.8123Z" fill="#DDAB23"/>
<path d="M3.82624 17.8309C-0.176156 19.9001 -0.634785 20.3776 1.36641 20.3776C2.34616 20.3776 8.53728 17.0987 8.34967 16.6689C8.05783 16.0004 6.66116 16.3506 3.82624 17.8309Z" fill="#DDAB23"/>
</svg>
