<svg width="112" height="40" viewBox="0 0 112 40" fill="none" xmlns="http://www.w3.org/2000/svg">
<path fill-rule="evenodd" clip-rule="evenodd" d="M73.9327 10.3839C70.7022 10.2883 67.9843 10.1866 66.5814 10.0962C63.8103 9.91778 57.2361 9.99444 51.9716 10.2689C47.9246 10.4791 41.2921 11.0045 35.271 11.545C33.5873 11.5075 31.8818 11.4606 30.2012 11.4043C15.1876 10.9014 13.2618 10.9766 12.5021 12.0954C11.715 13.255 11.712 13.3537 12.4632 13.3892C12.6693 13.399 12.8807 13.4692 13.0615 13.5765C12.7262 13.7362 12.5322 13.9269 12.3852 14.1569C12.3524 14.2082 12.3211 14.2575 12.2911 14.3048C11.1338 13.9889 10.9668 14.167 11.1536 15.4408C11.1954 15.7261 11.1918 16.0547 11.1507 16.391C11.0381 16.5051 11.0066 16.7081 11.0309 17.0252C10.9183 17.4643 10.7489 17.878 10.541 18.1842C9.76547 19.3263 9.78704 19.4237 10.845 19.5585L10.895 19.5647C10.8002 19.8535 10.681 20.1194 10.5427 20.3358C9.78955 21.514 9.81299 21.6104 10.8731 21.6949C11.5007 21.7449 12.1717 21.7493 12.3642 21.7046C12.5239 21.6675 13.068 22.2282 13.663 23.021C13.2066 23.122 13.3608 23.2786 14.0104 23.6583C14.0805 23.6993 14.1493 23.7432 14.2165 23.7894C14.5319 24.2062 14.866 24.5465 15.2186 24.8101C15.5841 25.3714 15.6496 25.8819 15.1879 25.9072C13.8391 25.9812 15.5046 27.3822 18.6438 28.8144C22.0596 30.3727 22.2504 30.3739 38.9018 28.9415C42.4493 28.6364 46.0968 28.283 49.4085 27.9307C51.2685 28.0456 53.5193 28.1428 55.8207 28.2079C57.5684 28.3388 59.3406 28.4522 60.9888 28.5346C70.7081 29.0223 94.9951 29.2507 91.7593 28.824C89.0063 28.4609 90.4393 27.707 94.793 27.2279C97.0375 26.9809 98.9578 26.4213 99.0604 25.9844C99.163 25.5474 99.8444 25.2183 100.575 25.2528C101.563 25.2996 101.91 24.933 101.931 23.8181C101.939 23.3929 101.882 23.0563 101.734 22.7784C101.923 22.5418 102 22.1762 102 21.6436C102 20.6356 101.643 20.1418 100.576 19.783C101.043 19.762 101.148 19.6839 100.944 19.4822C101.092 19.3005 101.072 18.9396 100.956 18.3181C100.916 18.1067 100.901 17.8682 100.907 17.6181C101.072 17.5656 101.071 17.4834 100.921 17.3486C100.974 16.692 101.162 15.9954 101.438 15.5188C102.145 14.3011 102.12 14.206 101.086 14.1781C100.519 14.1628 99.9175 14.1887 99.6833 14.2363C99.5238 13.9594 99.0888 13.5709 98.4337 13.1199C98.2814 12.9301 98.1242 12.7238 97.9679 12.507C97.0833 11.28 96.0652 10.6841 94.9151 10.7205C94.6581 10.7287 94.3254 10.7342 93.9271 10.7374C91.5548 9.86011 88.6843 9.93585 75.0042 10.3503C74.6479 10.3611 74.2906 10.3723 73.9327 10.3839ZM17.835 15.3102C17.7781 15.3266 17.7218 15.343 17.6661 15.3596C17.5289 15.3142 17.3924 15.2668 17.2574 15.2174C17.451 15.246 17.6439 15.277 17.835 15.3102ZM14.2252 13.2416C14.5318 13.1861 14.8902 13.1364 15.311 13.0915C14.5358 13.0218 14.2024 13.0535 14.2252 13.2416Z" fill="#FFC700" fill-opacity="0.5"/>
</svg>
